<?xml version="1.0" encoding="UTF-8" standalone="no"?>
<svg
   xmlns:dc="http://purl.org/dc/elements/1.1/"
   xmlns:cc="http://creativecommons.org/ns#"
   xmlns:rdf="http://www.w3.org/1999/02/22-rdf-syntax-ns#"
   xmlns:svg="http://www.w3.org/2000/svg"
   xmlns="http://www.w3.org/2000/svg"
   xmlns:sodipodi="http://sodipodi.sourceforge.net/DTD/sodipodi-0.dtd"
   xmlns:inkscape="http://www.inkscape.org/namespaces/inkscape"
   version="1.0"
   width="640.000000pt"
   height="640.000000pt"
   viewBox="0 0 640.000000 640.000000"
   preserveAspectRatio="xMidYMid meet"
   id="svg12"
   sodipodi:docname="lomiri.svg"
   inkscape:version="0.92.5 (2060ec1f9f, 2020-04-08)">
  <metadata
     id="metadata18">
    <rdf:RDF>
      <cc:Work
         rdf:about="">
        <dc:format>image/svg+xml</dc:format>
        <dc:type
           rdf:resource="http://purl.org/dc/dcmitype/StillImage" />
        <dc:title></dc:title>
      </cc:Work>
    </rdf:RDF>
  </metadata>
  <defs
     id="defs16">
    <filter
       inkscape:label="Channel Transparency"
       style="color-interpolation-filters:sRGB;"
       id="filter1030">
      <feColorMatrix
         values="1 0 0 0 0 0 1 0 0 0 0 0 1 0 0 6.1 7.17 8.98 0 0 "
         in="SourceGraphic"
         result="colormatrix"
         id="feColorMatrix1026" />
      <feComposite
         in="colormatrix"
         in2="SourceGraphic"
         operator="in"
         result="composite1"
         id="feComposite1028" />
    </filter>
    <filter
       inkscape:label="Channel Transparency"
       style="color-interpolation-filters:sRGB;"
       id="filter1036">
      <feColorMatrix
         values="1 0 0 0 0 0 1 0 0 0 0 0 1 0 0 6.1 7.17 8.98 0 0 "
         in="SourceGraphic"
         result="colormatrix"
         id="feColorMatrix1032" />
      <feComposite
         in="colormatrix"
         in2="SourceGraphic"
         operator="in"
         result="composite1"
         id="feComposite1034" />
    </filter>
  </defs>
  <sodipodi:namedview
     pagecolor="#ffffff"
     bordercolor="#666666"
     borderopacity="1"
     objecttolerance="10"
     gridtolerance="10"
     guidetolerance="10"
     inkscape:pageopacity="0"
     inkscape:pageshadow="2"
     inkscape:window-width="1866"
     inkscape:window-height="1016"
     id="namedview14"
     showgrid="false"
     inkscape:pagecheckerboard="true"
     inkscape:zoom="0.553125"
     inkscape:cx="560.49469"
     inkscape:cy="392.20146"
     inkscape:window-x="54"
     inkscape:window-y="1107"
     inkscape:window-maximized="1"
     inkscape:current-layer="svg12" />
  <path
     style="opacity:1;fill:#ffffff;fill-opacity:1;stroke:none;stroke-width:68.33044434;stroke-miterlimit:4;stroke-dasharray:none;stroke-opacity:1;filter:url(#filter1036)"
     d="m 374.59,732.25524 c -28.30774,-5.12523 -63.34333,-17.0411 -91.29944,-31.05164 -17.16279,-8.60133 -44.56217,-26.97854 -58.33929,-39.1291 -6.2335,-5.49756 -12.35444,-10.63754 -13.60207,-11.42219 -5.10754,-3.21215 -35.75715,-40.4463 -45.07613,-54.75996 -10.78243,-16.56148 -21.61149,-37.27969 -29.29389,-56.04519 -2.64599,-6.46328 -5.49354,-13.37853 -6.32789,-15.36723 -2.19512,-5.23219 -6.81412,-21.66167 -9.95743,-35.41797 -6.36928,-27.87424 -8.12626,-67.92813 -4.60742,-105.03517 2.07752,-21.90792 11.57865,-60.74876 18.49112,-75.59206 2.54685,-5.46893 7.59239,-16.77381 11.21231,-25.12194 11.23708,-25.91458 40.35716,-66.42006 64.74137,-90.05401 6.18809,-5.9977 32.26442,-26.79635 40.21695,-32.07732 10.09795,-6.70564 40.68757,-24.49815 42.11824,-24.49815 0.50679,0 6.08712,-2.44067 12.40078,-5.42372 6.31363,-2.98305 12.6975,-5.42373 14.18637,-5.42373 1.48887,0 2.70704,-0.64561 2.70704,-1.4347 0,-0.78908 4.27119,-2.39473 9.49153,-3.56811 5.22033,-1.17338 16.63184,-3.78893 25.35889,-5.81233 29.99628,-6.95475 54.65217,-9.52058 79.04789,-8.22616 63.27983,3.35758 106.61304,15.96388 156.66021,45.57485 46.31425,27.40235 93.80567,78.29839 115.43018,123.70527 3.9774,8.3517 7.72346,15.59169 8.32457,16.08886 2.20001,1.81961 14.82985,37.47088 18.25344,51.52542 15.66709,64.31682 9.71353,142.04462 -15.37089,200.67797 -6.22953,14.56116 -22.31361,44.70368 -28.60767,53.61242 -1.86473,2.63937 -3.39041,5.69022 -3.39041,6.77966 0,1.08945 -0.71581,1.9808 -1.59069,1.9808 -0.87488,0 -4.88546,4.36386 -8.91236,9.69748 -16.18493,21.43677 -47.78564,50.56554 -73.39059,67.64963 -13.97364,9.32348 -55.7939,31.11519 -59.75778,31.13861 -1.03692,0.005 -3.94574,1.08646 -6.46405,2.40075 -6.94445,3.62427 -36.8218,11.64553 -54.86711,14.73036 -20.62995,3.52666 -88.09775,3.46318 -107.78578,-0.10142 z M 527.18865,619.79502 c 12.40991,-5.96216 18.6632,-10.38724 27.27479,-19.30072 12.7057,-13.1511 26.21587,-37.58619 26.78006,-48.43565 0.19368,-3.72435 0.96232,-6.7752 1.70808,-6.77966 4.06415,-0.0242 -1.23995,-44.90908 -5.85197,-49.52109 -1.0074,-1.0074 -1.83165,-2.79071 -1.83165,-3.9629 0,-1.17218 -2.80634,-6.79165 -6.23633,-12.48769 l -6.23633,-10.35646 -3.25519,5.64361 c -19.29681,33.45529 -23.64339,39.67258 -34.24349,48.98151 -6.22749,5.46893 -11.36206,10.79702 -11.41015,11.8402 -0.0481,1.04318 -3.13828,2.99632 -6.86709,4.34028 -3.72882,1.34399 -9.62712,4.23563 -13.10735,6.42589 -9.2969,5.85094 -36.93172,13.44582 -53.60146,14.7313 -10.05382,0.77529 -20.25296,0.16579 -33.0607,-1.97586 -10.1869,-1.70338 -19.05866,-2.51641 -19.71504,-1.80677 -0.65638,0.70964 -0.17645,1.65346 1.06647,2.09737 1.24294,0.4439 2.25988,1.95748 2.25988,3.36349 0,1.40599 2.42944,7.6983 5.39877,13.98286 10.10596,21.38931 43.57472,48.238 60.13796,48.24275 2.73446,7.8e-4 4.97175,0.893 4.97175,1.98272 0,1.37068 7.66094,1.78854 24.85876,1.35593 l 24.85875,-0.62536 z M 314.44146,541.72456 c 16.86337,-1.93905 29.41408,-5.25149 29.41408,-7.76309 0,-0.93364 -5.15965,-7.10995 -11.46588,-13.72512 -33.29211,-34.92316 -48.45412,-88.1269 -36.46609,-127.96009 1.40154,-4.65697 2.44227,-8.95188 2.31273,-9.54422 -0.12945,-0.59233 3.06907,-8.09841 7.10801,-16.68017 7.85882,-16.698 17.82339,-31.18785 28.36641,-41.24864 10.7492,-10.25752 9.8172,-11.08492 -17.24116,-15.30639 -8.59902,-1.34156 -17.95495,-2.07783 -20.79097,-1.63618 -23.20173,3.61333 -43.44097,10.62089 -58.07326,20.1071 -15.14858,9.82093 -31.83568,29.51357 -41.48542,48.95744 l -8.4468,17.01998 -0.74398,25.49337 c -0.58253,19.9612 -0.081,28.04345 2.31122,37.24476 8.93754,34.37699 39.66526,67.7456 72.3553,78.57384 12.66185,4.19411 26.57233,7.34262 35.25424,7.97946 1.49152,0.10938 9.40772,-0.57101 17.59157,-1.51205 z m 249.73861,-184.0243 c 5.75035,-11.30377 11.08916,-31.02004 11.06643,-40.86841 -0.0483,-20.92702 -10.78889,-44.56343 -27.05853,-59.54651 -13.34571,-12.29038 -22.33878,-16.84349 -40.75632,-20.63455 -12.96361,-2.66843 -16.94429,-2.79911 -27.92208,-0.91663 -17.93791,3.07601 -34.34856,10.98206 -44.58431,21.47908 -9.68499,9.93219 -19.10671,23.87636 -17.68593,26.17522 0.52463,0.84889 5.99063,1.55955 12.14664,1.57926 26.19205,0.0837 49.26924,6.72146 74.37743,21.3931 14.44079,8.43829 36.53075,30.92245 45.11071,45.91572 3.84089,6.71186 8.08,12.20339 9.42026,12.20339 1.34026,0 3.98883,-3.05085 5.8857,-6.77967 z"
     id="path856"
     inkscape:connector-curvature="0"
     transform="scale(0.75000002)" />
</svg>
