<svg xmlns="http://www.w3.org/2000/svg" width="803" height="803" viewBox="0 0 803.00001 803.00001"><g color="#000"><path style="isolation:auto;mix-blend-mode:normal" d="M401.5 0A401.5 401.5 0 0 0 0 401.5 401.5 401.5 0 0 0 401.5 803 401.5 401.5 0 0 0 803 401.5 401.5 401.5 0 0 0 401.5 0zm0 73A328.5 328.5 0 0 1 730 401.5 328.5 328.5 0 0 1 401.5 730 328.5 328.5 0 0 1 73 401.5 328.5 328.5 0 0 1 401.5 73z" overflow="visible" solid-color="#000000" fill="#f1c40f"/><path style="isolation:auto;mix-blend-mode:normal" d="M401.5 96.5a305 305 0 0 0-305 305 305 305 0 0 0 305 305 305 305 0 0 0 305-305 305 305 0 0 0-305-305zm0 73a232 232 0 0 1 232 232 232 232 0 0 1-232 232 232 232 0 0 1-232-232 232 232 0 0 1 232-232z" overflow="visible" solid-color="#000000" fill="#27ae60"/></g></svg>