<?xml version="1.0" encoding="UTF-8" standalone="no"?>
<!-- Created with Inkscape (http://www.inkscape.org/) -->

<svg
   xmlns:dc="http://purl.org/dc/elements/1.1/"
   xmlns:cc="http://creativecommons.org/ns#"
   xmlns:rdf="http://www.w3.org/1999/02/22-rdf-syntax-ns#"
   xmlns:svg="http://www.w3.org/2000/svg"
   xmlns="http://www.w3.org/2000/svg"
   xmlns:sodipodi="http://sodipodi.sourceforge.net/DTD/sodipodi-0.dtd"
   xmlns:inkscape="http://www.inkscape.org/namespaces/inkscape"
   width="256mm"
   height="256mm"
   viewBox="0 0 907.08661 907.08661"
   id="svg2"
   version="1.1"
   inkscape:version="0.92.5 (2060ec1f9f, 2020-04-08)"
   sodipodi:docname="kugi_colorized.svg">
  <defs
     id="defs4">
    <filter
       style="color-interpolation-filters:sRGB;"
       inkscape:label="Colorize"
       id="filter839">
      <feComposite
         in2="SourceGraphic"
         operator="arithmetic"
         k1="0"
         k2="8.6"
         result="composite1"
         id="feComposite825" />
      <feColorMatrix
         in="composite1"
         values="1"
         type="saturate"
         result="colormatrix1"
         id="feColorMatrix827" />
      <feFlood
         flood-opacity="1"
         flood-color="rgb(255,255,255)"
         result="flood1"
         id="feFlood829" />
      <feBlend
         in="flood1"
         in2="colormatrix1"
         mode="multiply"
         result="blend1"
         id="feBlend831" />
      <feBlend
         in2="blend1"
         mode="screen"
         result="blend2"
         id="feBlend833" />
      <feColorMatrix
         in="blend2"
         values="1"
         type="saturate"
         result="colormatrix2"
         id="feColorMatrix835" />
      <feComposite
         in="colormatrix2"
         in2="SourceGraphic"
         operator="in"
         k2="1"
         result="composite2"
         id="feComposite837" />
    </filter>
    <filter
       id="filter1030"
       style="color-interpolation-filters:sRGB;"
       inkscape:label="Channel Transparency">
      <feColorMatrix
         id="feColorMatrix1026"
         result="colormatrix"
         in="SourceGraphic"
         values="1 0 0 0 0 0 1 0 0 0 0 0 1 0 0 6.1 7.17 8.98 0 0 " />
      <feComposite
         id="feComposite1028"
         result="composite1"
         operator="in"
         in2="SourceGraphic"
         in="colormatrix" />
    </filter>
    <filter
       id="filter1036"
       style="color-interpolation-filters:sRGB;"
       inkscape:label="Channel Transparency">
      <feColorMatrix
         id="feColorMatrix1032"
         result="colormatrix"
         in="SourceGraphic"
         values="1 0 0 0 0 0 1 0 0 0 0 0 1 0 0 6.1 7.17 8.98 0 0 " />
      <feComposite
         id="feComposite1034"
         result="composite1"
         operator="in"
         in2="SourceGraphic"
         in="colormatrix" />
    </filter>
    <filter
       id="filter839-5"
       inkscape:label="Colorize"
       style="color-interpolation-filters:sRGB;">
      <feComposite
         id="feComposite825-6"
         result="composite1"
         k2="8.6"
         k1="0"
         operator="arithmetic"
         in2="SourceGraphic" />
      <feColorMatrix
         id="feColorMatrix827-3"
         result="colormatrix1"
         type="saturate"
         values="1"
         in="composite1" />
      <feFlood
         id="feFlood829-9"
         result="flood1"
         flood-color="rgb(255,255,255)"
         flood-opacity="1" />
      <feBlend
         id="feBlend831-4"
         result="blend1"
         mode="multiply"
         in2="colormatrix1"
         in="flood1" />
      <feBlend
         id="feBlend833-8"
         result="blend2"
         mode="screen"
         in2="blend1" />
      <feColorMatrix
         id="feColorMatrix835-1"
         result="colormatrix2"
         type="saturate"
         values="1"
         in="blend2" />
      <feComposite
         id="feComposite837-2"
         result="composite2"
         k2="1"
         operator="in"
         in2="SourceGraphic"
         in="colormatrix2" />
    </filter>
    <filter
       id="filter839-6"
       inkscape:label="Colorize"
       style="color-interpolation-filters:sRGB;">
      <feComposite
         id="feComposite825-3"
         result="composite1"
         k2="8.6"
         k1="0"
         operator="arithmetic"
         in2="SourceGraphic" />
      <feColorMatrix
         id="feColorMatrix827-8"
         result="colormatrix1"
         type="saturate"
         values="1"
         in="composite1" />
      <feFlood
         id="feFlood829-5"
         result="flood1"
         flood-color="rgb(255,255,255)"
         flood-opacity="1" />
      <feBlend
         id="feBlend831-6"
         result="blend1"
         mode="multiply"
         in2="colormatrix1"
         in="flood1" />
      <feBlend
         id="feBlend833-1"
         result="blend2"
         mode="screen"
         in2="blend1" />
      <feColorMatrix
         id="feColorMatrix835-15"
         result="colormatrix2"
         type="saturate"
         values="1"
         in="blend2" />
      <feComposite
         id="feComposite837-9"
         result="composite2"
         k2="1"
         operator="in"
         in2="SourceGraphic"
         in="colormatrix2" />
    </filter>
  </defs>
  <sodipodi:namedview
     id="base"
     pagecolor="#ffffff"
     bordercolor="#666666"
     borderopacity="1.0"
     inkscape:pageopacity="0.0"
     inkscape:pageshadow="2"
     inkscape:zoom="0.7"
     inkscape:cx="243.97502"
     inkscape:cy="549.51345"
     inkscape:document-units="px"
     inkscape:current-layer="layer1"
     showgrid="false"
     inkscape:window-width="1866"
     inkscape:window-height="1016"
     inkscape:window-x="54"
     inkscape:window-y="1107"
     inkscape:window-maximized="1"
     inkscape:pagecheckerboard="true" />
  <metadata
     id="metadata7">
    <rdf:RDF>
      <cc:Work
         rdf:about="">
        <dc:format>image/svg+xml</dc:format>
        <dc:type
           rdf:resource="http://purl.org/dc/dcmitype/StillImage" />
        <dc:title></dc:title>
      </cc:Work>
    </rdf:RDF>
  </metadata>
  <g
     inkscape:label="Layer 1"
     inkscape:groupmode="layer"
     id="layer1"
     transform="translate(0,-145.27559)"
     style="display:inline">
    <g
       id="g4156"
       transform="matrix(1.2026098,0,0,1.1296951,-95.132563,-63.851702)"
       style="fill:#ffffff;fill-opacity:1;filter:url(#filter839)">
      <g
         transform="translate(0,4)"
         id="g4152"
         style="fill:#ffffff;fill-opacity:1">
        <path
           style="fill:#ffffff;fill-opacity:1;fill-rule:evenodd;stroke:none;stroke-width:1px;stroke-linecap:butt;stroke-linejoin:miter;stroke-opacity:1"
           d="m 244.12641,565.04529 c 61.16233,-93.9562 129.71966,-135.19585 225.13196,-144.30218 24.18687,-2.30844 66.25813,-0.58526 96.69332,-1.74573 l -0.16285,73.08419 c -29.4168,1.40112 -72.28857,-1.93139 -95.6288,2.39486 -61.5718,11.41271 -81.81155,27.91541 -108.34547,61.52761 -26.02892,34.41618 -38.74127,70.343 -11.20094,121.44967 23.09896,42.86482 65.80507,78.31065 124.37631,78.35015 109.16339,3.56268 129.28035,0.0649 197.52299,-0.25989 l -0.73071,-99.69608 -106.61256,0.44042 0.54118,-68.69151 111.54417,-0.14155 77.98186,1.6923 -1.16736,252.2937 -213.07934,-1.54924 C 475.22116,837.6654 408.44251,843.08506 338.0396,795.06758 300.37046,769.37579 242.49595,708.43586 240.98832,638.08133 l 1.84305,202.30317 -100.35651,0.36595 1.97893,-516.24367 100.65562,-0.76316 z"
           id="path4144"
           inkscape:connector-curvature="0"
           sodipodi:nodetypes="csccscscccccccccscccccc" />
        <ellipse
           style="fill:#ffffff;fill-opacity:1;stroke:none;stroke-width:1.34221137;stroke-opacity:1"
           id="path4146"
           cx="712.98688"
           cy="456.64249"
           rx="57.013565"
           ry="57.038139" />
      </g>
    </g>
    <path
       transform="matrix(0.93749997,0,0,0.93749997,641.27301,203.92074)"
       inkscape:connector-curvature="0"
       id="path856"
       d="m 374.59,732.25524 c -28.30774,-5.12523 -63.34333,-17.0411 -91.29944,-31.05164 -17.16279,-8.60133 -44.56217,-26.97854 -58.33929,-39.1291 -6.2335,-5.49756 -12.35444,-10.63754 -13.60207,-11.42219 -5.10754,-3.21215 -35.75715,-40.4463 -45.07613,-54.75996 -10.78243,-16.56148 -21.61149,-37.27969 -29.29389,-56.04519 -2.64599,-6.46328 -5.49354,-13.37853 -6.32789,-15.36723 -2.19512,-5.23219 -6.81412,-21.66167 -9.95743,-35.41797 -6.36928,-27.87424 -8.12626,-67.92813 -4.60742,-105.03517 2.07752,-21.90792 11.57865,-60.74876 18.49112,-75.59206 2.54685,-5.46893 7.59239,-16.77381 11.21231,-25.12194 11.23708,-25.91458 40.35716,-66.42006 64.74137,-90.05401 6.18809,-5.9977 32.26442,-26.79635 40.21695,-32.07732 10.09795,-6.70564 40.68757,-24.49815 42.11824,-24.49815 0.50679,0 6.08712,-2.44067 12.40078,-5.42372 6.31363,-2.98305 12.6975,-5.42373 14.18637,-5.42373 1.48887,0 2.70704,-0.64561 2.70704,-1.4347 0,-0.78908 4.27119,-2.39473 9.49153,-3.56811 5.22033,-1.17338 16.63184,-3.78893 25.35889,-5.81233 29.99628,-6.95475 54.65217,-9.52058 79.04789,-8.22616 63.27983,3.35758 106.61304,15.96388 156.66021,45.57485 46.31425,27.40235 93.80567,78.29839 115.43018,123.70527 3.9774,8.3517 7.72346,15.59169 8.32457,16.08886 2.20001,1.81961 14.82985,37.47088 18.25344,51.52542 15.66709,64.31682 9.71353,142.04462 -15.37089,200.67797 -6.22953,14.56116 -22.31361,44.70368 -28.60767,53.61242 -1.86473,2.63937 -3.39041,5.69022 -3.39041,6.77966 0,1.08945 -0.71581,1.9808 -1.59069,1.9808 -0.87488,0 -4.88546,4.36386 -8.91236,9.69748 -16.18493,21.43677 -47.78564,50.56554 -73.39059,67.64963 -13.97364,9.32348 -55.7939,31.11519 -59.75778,31.13861 -1.03692,0.005 -3.94574,1.08646 -6.46405,2.40075 -6.94445,3.62427 -36.8218,11.64553 -54.86711,14.73036 -20.62995,3.52666 -88.09775,3.46318 -107.78578,-0.10142 z M 527.18865,619.79502 c 12.40991,-5.96216 18.6632,-10.38724 27.27479,-19.30072 12.7057,-13.1511 26.21587,-37.58619 26.78006,-48.43565 0.19368,-3.72435 0.96232,-6.7752 1.70808,-6.77966 4.06415,-0.0242 -1.23995,-44.90908 -5.85197,-49.52109 -1.0074,-1.0074 -1.83165,-2.79071 -1.83165,-3.9629 0,-1.17218 -2.80634,-6.79165 -6.23633,-12.48769 l -6.23633,-10.35646 -3.25519,5.64361 c -19.29681,33.45529 -23.64339,39.67258 -34.24349,48.98151 -6.22749,5.46893 -11.36206,10.79702 -11.41015,11.8402 -0.0481,1.04318 -3.13828,2.99632 -6.86709,4.34028 -3.72882,1.34399 -9.62712,4.23563 -13.10735,6.42589 -9.2969,5.85094 -36.93172,13.44582 -53.60146,14.7313 -10.05382,0.77529 -20.25296,0.16579 -33.0607,-1.97586 -10.1869,-1.70338 -19.05866,-2.51641 -19.71504,-1.80677 -0.65638,0.70964 -0.17645,1.65346 1.06647,2.09737 1.24294,0.4439 2.25988,1.95748 2.25988,3.36349 0,1.40599 2.42944,7.6983 5.39877,13.98286 10.10596,21.38931 43.57472,48.238 60.13796,48.24275 2.73446,7.8e-4 4.97175,0.893 4.97175,1.98272 0,1.37068 7.66094,1.78854 24.85876,1.35593 l 24.85875,-0.62536 z M 314.44146,541.72456 c 16.86337,-1.93905 29.41408,-5.25149 29.41408,-7.76309 0,-0.93364 -5.15965,-7.10995 -11.46588,-13.72512 -33.29211,-34.92316 -48.45412,-88.1269 -36.46609,-127.96009 1.40154,-4.65697 2.44227,-8.95188 2.31273,-9.54422 -0.12945,-0.59233 3.06907,-8.09841 7.10801,-16.68017 7.85882,-16.698 17.82339,-31.18785 28.36641,-41.24864 10.7492,-10.25752 9.8172,-11.08492 -17.24116,-15.30639 -8.59902,-1.34156 -17.95495,-2.07783 -20.79097,-1.63618 -23.20173,3.61333 -43.44097,10.62089 -58.07326,20.1071 -15.14858,9.82093 -31.83568,29.51357 -41.48542,48.95744 l -8.4468,17.01998 -0.74398,25.49337 c -0.58253,19.9612 -0.081,28.04345 2.31122,37.24476 8.93754,34.37699 39.66526,67.7456 72.3553,78.57384 12.66185,4.19411 26.57233,7.34262 35.25424,7.97946 1.49152,0.10938 9.40772,-0.57101 17.59157,-1.51205 z m 249.73861,-184.0243 c 5.75035,-11.30377 11.08916,-31.02004 11.06643,-40.86841 -0.0483,-20.92702 -10.78889,-44.56343 -27.05853,-59.54651 -13.34571,-12.29038 -22.33878,-16.84349 -40.75632,-20.63455 -12.96361,-2.66843 -16.94429,-2.79911 -27.92208,-0.91663 -17.93791,3.07601 -34.34856,10.98206 -44.58431,21.47908 -9.68499,9.93219 -19.10671,23.87636 -17.68593,26.17522 0.52463,0.84889 5.99063,1.55955 12.14664,1.57926 26.19205,0.0837 49.26924,6.72146 74.37743,21.3931 14.44079,8.43829 36.53075,30.92245 45.11071,45.91572 3.84089,6.71186 8.08,12.20339 9.42026,12.20339 1.34026,0 3.98883,-3.05085 5.8857,-6.77967 z"
       style="opacity:1;fill:#000000;fill-opacity:0;stroke:none;stroke-width:68.33044434;stroke-miterlimit:4;stroke-dasharray:none;stroke-opacity:1;filter:url(#filter1036)" />
  </g>
</svg>
