<?xml version="1.0" encoding="UTF-8" standalone="no"?>
<svg
   xmlns:dc="http://purl.org/dc/elements/1.1/"
   xmlns:cc="http://creativecommons.org/ns#"
   xmlns:rdf="http://www.w3.org/1999/02/22-rdf-syntax-ns#"
   xmlns:svg="http://www.w3.org/2000/svg"
   xmlns="http://www.w3.org/2000/svg"
   xmlns:sodipodi="http://sodipodi.sourceforge.net/DTD/sodipodi-0.dtd"
   xmlns:inkscape="http://www.inkscape.org/namespaces/inkscape"
   version="1.0"
   width="400.000000pt"
   height="400.000000pt"
   viewBox="0 0 400.000000 400.000000"
   preserveAspectRatio="xMidYMid meet"
   id="svg48"
   sodipodi:docname="moon.svg"
   inkscape:version="0.92.5 (2060ec1f9f, 2020-04-08)">
  <metadata
     id="metadata54">
    <rdf:RDF>
      <cc:Work
         rdf:about="">
        <dc:format>image/svg+xml</dc:format>
        <dc:type
           rdf:resource="http://purl.org/dc/dcmitype/StillImage" />
        <dc:title></dc:title>
      </cc:Work>
    </rdf:RDF>
  </metadata>
  <defs
     id="defs52">
    <filter
       style="color-interpolation-filters:sRGB;"
       inkscape:label="Invert"
       id="filter900">
      <feColorMatrix
         type="hueRotate"
         values="180"
         result="color1"
         id="feColorMatrix896" />
      <feColorMatrix
         values="-1 0 0 0 1 0 -1 0 0 1 0 0 -1 0 1 -0.21 -0.72 -0.07 2 0 "
         result="color2"
         id="feColorMatrix898" />
    </filter>
  </defs>
  <sodipodi:namedview
     pagecolor="#ffffff"
     bordercolor="#666666"
     borderopacity="1"
     objecttolerance="10"
     gridtolerance="10"
     guidetolerance="10"
     inkscape:pageopacity="0"
     inkscape:pageshadow="2"
     inkscape:window-width="1866"
     inkscape:window-height="1016"
     id="namedview50"
     showgrid="false"
     inkscape:pagecheckerboard="true"
     inkscape:zoom="1.251579"
     inkscape:cx="343.1574"
     inkscape:cy="277.05758"
     inkscape:window-x="54"
     inkscape:window-y="1107"
     inkscape:window-maximized="1"
     inkscape:current-layer="svg48" />
  <g
     transform="translate(0.000000,400.000000) scale(0.100000,-0.100000)"
     fill="#ffffff"
     stroke="none"
     id="g46"
     style="filter:url(#filter900);fill:#ffffff;fill-opacity:1">
    <path
       d="M2064 3537 c-14 -37 0 -52 56 -59 30 -4 84 -12 120 -18 36 -6 82 -13 103 -16 20 -4 40 -10 43 -15 3 -5 15 -9 26 -9 25 0 139 -38 152 -51 6 -5 18 -9 28 -9 10 0 30 -7 43 -16 30 -19 55 -12 55 16 0 14 -15 27 -52 45 -28 14 -55 25 -60 25 -5 0 -27 9 -51 19 -23 10 -64 24 -92 31 -27 6 -59 16 -70 20 -23 10 -68 17 -180 29 -44 5 -88 12 -97 16 -12 5 -20 2 -24 -8z"
       id="path2"
       style="fill:#ffffff;fill-opacity:1" />
    <path
       d="M1790 3529 c-104 -13 -144 -20 -165 -29 -11 -4 -42 -14 -70 -20 -27 -7 -69 -21 -92 -31 -24 -10 -47 -19 -51 -19 -16 0 -132 -60 -132 -68 0 -5 9 -17 19 -26 14 -13 24 -15 38 -8 85 46 205 92 240 92 12 0 24 4 27 9 3 5 23 11 43 15 21 3 65 10 98 15 33 6 83 14 110 18 45 7 50 11 50 33 0 29 -14 32 -115 19z"
       id="path4"
       style="fill:#ffffff;fill-opacity:1" />
    <path
       d="M1932 3317 c-50 -29 -71 -91 -46 -143 59 -124 247 -49 204 82 -21 61 -101 92 -158 61z"
       id="path6"
       style="fill:#ffffff;fill-opacity:1" />
    <path
       d="M1090 3254 c-25 -18 -61 -45 -80 -58 -72 -49 -230 -221 -307 -333 -20 -30 -20 -32 -4 -47 25 -23 36 -20 60 17 46 70 76 106 179 209 59 60 135 127 169 150 l62 41 -15 29 c-8 15 -16 28 -17 27 -1 0 -22 -16 -47 -35z"
       id="path8"
       style="fill:#ffffff;fill-opacity:1" />
    <path
       d="M2827 3283 c-4 -3 -7 -16 -7 -28 0 -15 16 -32 53 -55 28 -19 108 -90 177 -160 110 -111 141 -146 193 -222 11 -16 13 -16 35 1 24 17 24 18 5 47 -71 116 -262 307 -401 402 -35 23 -45 26 -55 15z"
       id="path10"
       style="fill:#ffffff;fill-opacity:1" />
    <path
       d="M1820 2878 c-134 -39 -236 -84 -320 -141 -79 -54 -155 -118 -168 -144 -8 -14 -29 -46 -49 -71 -60 -79 -114 -198 -149 -330 -19 -71 -19 -323 0 -394 56 -212 151 -366 309 -498 101 -85 223 -146 375 -186 76 -20 323 -19 399 2 32 9 78 20 103 25 24 5 60 20 80 32 19 13 61 39 93 58 157 92 309 282 372 464 38 112 45 157 45 300 0 176 -21 268 -95 416 -116 229 -326 392 -603 465 -62 16 -337 18 -392 2z m247 -78 c17 0 27 -7 30 -20 3 -11 15 -22 27 -24 11 -2 48 -9 81 -16 33 -6 81 -14 108 -17 48 -6 52 -9 39 -30 -14 -22 -285 -13 -308 10 -4 4 -8 35 -9 70 0 34 1 54 3 45 2 -12 13 -18 29 -18z m-214 -127 c9 -122 21 -158 57 -173 23 -9 39 -9 78 0 37 10 85 10 219 1 227 -15 425 -15 441 1 19 19 25 2 11 -36 -9 -26 -19 -36 -34 -36 -12 0 -30 -6 -40 -14 -17 -12 -18 -20 -6 -152 7 -76 16 -195 21 -264 5 -69 14 -168 20 -220 22 -184 24 -264 6 -298 -26 -51 -46 -42 -46 22 0 73 -6 86 -42 86 -23 0 -44 -14 -91 -59 -84 -79 -95 -84 -135 -59 -18 11 -32 27 -32 36 -1 10 59 74 132 144 l133 127 1 68 c2 91 -6 144 -22 150 -18 7 -32 -5 -261 -238 -195 -197 -203 -207 -203 -245 0 -45 19 -77 75 -125 21 -19 46 -41 55 -49 9 -8 39 -36 68 -62 l53 -47 -37 -16 c-74 -31 -79 -30 -136 17 -75 60 -174 147 -215 186 -22 22 -41 32 -56 30 -19 -3 -22 -8 -20 -48 8 -161 13 -190 41 -222 13 -16 13 -18 0 -18 -8 0 -18 3 -22 8 -4 4 -24 12 -44 17 -35 10 -37 13 -36 50 0 22 2 94 4 160 1 66 -2 154 -8 195 -14 108 -5 120 92 120 76 0 168 22 198 48 15 13 17 32 11 181 -5 165 -6 166 -33 195 l-28 29 -237 -2 c-130 -1 -248 -6 -261 -11 -30 -12 -44 -46 -44 -110 0 -57 21 -86 54 -75 12 4 89 10 173 12 147 5 151 5 163 -16 6 -12 10 -32 8 -44 -3 -20 -11 -23 -93 -29 -175 -15 -189 -37 -182 -283 3 -104 10 -182 17 -195 14 -26 5 -126 -12 -136 -22 -14 -63 32 -72 81 -8 42 -19 59 -77 118 -65 67 -70 69 -105 64 -39 -7 -63 10 -64 44 0 8 -11 38 -25 65 -29 56 -31 72 -10 80 19 8 40 -8 140 -105 62 -60 91 -81 110 -81 25 0 27 2 24 43 -2 23 1 61 5 85 7 37 4 48 -18 82 -14 22 -44 51 -66 65 -36 23 -88 66 -191 160 -20 18 -46 36 -57 39 -11 4 -22 15 -25 25 -6 25 8 100 21 113 9 9 60 -30 131 -103 30 -30 66 -42 80 -25 5 6 14 83 20 171 6 88 12 174 13 190 3 26 -2 33 -34 48 -21 10 -38 25 -38 32 0 17 24 42 61 60 16 9 29 23 29 32 0 17 37 63 52 63 4 0 8 -15 8 -34 0 -57 18 -66 127 -66 94 0 95 0 125 32 29 31 30 34 23 98 -11 108 -11 110 24 110 l28 0 6 -87z m-478 -162 c3 -6 -5 -19 -17 -31 -25 -23 -35 -12 -18 19 11 22 25 27 35 12z m1383 -160 c10 -31 11 -46 3 -54 -17 -17 -28 2 -34 56 -6 60 11 58 31 -2z m2 -142 c0 -11 -4 -17 -10 -14 -5 3 -10 13 -10 21 0 8 5 14 10 14 6 0 10 -9 10 -21z m39 -189 c1 -20 6 -41 12 -47 8 -8 8 -17 0 -31 -8 -15 -8 -28 1 -47 9 -20 9 -28 -1 -38 -10 -9 -15 -8 -27 8 -8 11 -12 26 -9 33 3 8 5 55 6 105 0 61 3 85 9 72 5 -11 9 -36 9 -55z m-9 -284 c0 -3 -4 -8 -10 -11 -5 -3 -10 -1 -10 4 0 6 5 11 10 11 6 0 10 -2 10 -4z"
       id="path12"
       style="fill:#ffffff;fill-opacity:1" />
    <path
       d="M1533 2422 c-30 -19 -45 -129 -20 -150 9 -8 169 -12 496 -13 397 -1 485 1 493 12 12 18 3 126 -12 144 -11 13 -82 15 -479 15 -256 0 -471 -4 -478 -8z"
       id="path14"
       style="fill:#ffffff;fill-opacity:1" />
    <path
       d="M2221 2151 c-65 -11 -69 -21 -63 -168 4 -124 11 -153 37 -153 6 0 64 53 127 118 212 215 210 206 53 208 -61 1 -130 -1 -154 -5z"
       id="path16"
       style="fill:#ffffff;fill-opacity:1" />
    <path
       d="M1965 1668 c-90 -21 -90 -21 -93 -61 -7 -79 41 -88 112 -23 35 32 47 50 44 67 -4 27 -11 29 -63 17z"
       id="path18"
       style="fill:#ffffff;fill-opacity:1" />
    <path
       d="M2963 2790 c-66 -30 -91 -97 -58 -160 44 -85 166 -75 207 16 17 40 17 45 2 84 -26 64 -88 89 -151 60z"
       id="path20"
       style="fill:#ffffff;fill-opacity:1" />
    <path
       d="M824 2716 c-51 -22 -77 -64 -71 -114 9 -82 90 -131 161 -97 87 41 89 162 4 206 -44 22 -53 23 -94 5z"
       id="path22"
       style="fill:#ffffff;fill-opacity:1" />
    <path
       d="M3352 2678 c-17 -17 -15 -27 18 -93 16 -33 30 -68 30 -77 0 -9 5 -20 10 -23 6 -3 10 -15 10 -26 0 -10 4 -27 9 -37 5 -9 14 -35 19 -57 6 -22 15 -59 21 -81 6 -23 11 -59 11 -80 1 -22 7 -61 14 -89 11 -42 17 -50 37 -50 23 0 24 2 21 65 -7 153 -101 471 -161 543 -17 20 -23 21 -39 5z"
       id="path24"
       style="fill:#ffffff;fill-opacity:1" />
    <path
       d="M566 2618 c-60 -126 -110 -310 -125 -463 -8 -84 -2 -105 29 -105 14 0 19 11 24 43 16 121 26 186 36 227 6 25 14 57 17 73 3 15 9 30 14 33 5 3 9 16 9 29 0 13 5 27 10 30 6 3 10 14 10 25 0 16 13 48 52 123 12 24 2 37 -27 37 -19 0 -29 -11 -49 -52z"
       id="path26"
       style="fill:#ffffff;fill-opacity:1" />
    <path
       d="M3506 1898 c-12 -42 -26 -124 -26 -151 0 -17 -4 -44 -9 -61 -6 -17 -15 -58 -22 -91 -7 -33 -16 -64 -21 -70 -4 -5 -8 -19 -8 -31 0 -13 -4 -26 -10 -29 -5 -3 -10 -14 -10 -23 0 -9 -14 -44 -30 -76 -31 -62 -28 -86 10 -86 17 0 50 48 50 72 0 4 9 27 19 51 11 23 25 60 32 82 6 22 15 49 20 60 8 20 12 38 30 130 12 59 27 217 22 228 -7 12 -43 8 -47 -5z"
       id="path28"
       style="fill:#ffffff;fill-opacity:1" />
    <path
       d="M438 1883 c-11 -21 28 -278 51 -338 5 -11 14 -38 20 -60 7 -22 21 -59 32 -82 10 -24 19 -47 19 -51 0 -15 30 -69 44 -81 10 -8 17 -6 31 9 17 19 16 22 -14 84 -17 36 -31 72 -31 80 0 8 -4 18 -10 21 -5 3 -10 15 -10 26 0 10 -4 27 -9 37 -14 29 -31 87 -31 110 0 11 -4 24 -10 27 -5 3 -10 32 -10 63 -1 84 -22 156 -48 160 -11 2 -22 0 -24 -5z"
       id="path30"
       style="fill:#ffffff;fill-opacity:1" />
    <path
       d="M833 1585 c-123 -53 -42 -255 87 -216 45 13 65 35 78 82 14 53 -15 114 -62 134 -43 18 -62 18 -103 0z"
       id="path32"
       style="fill:#ffffff;fill-opacity:1" />
    <path
       d="M2994 1413 c-12 -2 -34 -18 -50 -34 -24 -25 -29 -39 -29 -80 0 -46 4 -54 37 -85 30 -27 46 -34 77 -34 78 0 137 83 108 152 -26 61 -83 93 -143 81z"
       id="path34"
       style="fill:#ffffff;fill-opacity:1" />
    <path
       d="M708 1136 c-27 -20 -32 -10 69 -139 99 -126 181 -203 311 -293 50 -34 55 -36 70 -20 20 20 10 42 -30 66 -87 51 -358 322 -358 357 0 10 -32 43 -41 43 -2 0 -12 -7 -21 -14z"
       id="path36"
       style="fill:#ffffff;fill-opacity:1" />
    <path
       d="M3237 1132 c-10 -10 -17 -22 -17 -27 0 -23 -236 -268 -309 -320 -91 -65 -93 -67 -73 -92 l17 -22 40 27 c65 43 207 165 245 210 112 130 164 206 156 227 -8 21 -39 19 -59 -3z"
       id="path38"
       style="fill:#ffffff;fill-opacity:1" />
    <path
       d="M2024 851 c-74 -45 -86 -116 -30 -175 30 -32 39 -36 84 -36 43 0 55 5 81 31 26 25 31 38 31 78 0 39 -5 52 -27 73 -56 52 -90 59 -139 29z"
       id="path40"
       style="fill:#ffffff;fill-opacity:1" />
    <path
       d="M1307 623 c-18 -18 -5 -52 25 -67 17 -9 35 -16 40 -16 5 0 28 -9 50 -20 23 -11 48 -20 55 -20 7 0 21 -4 31 -9 16 -9 113 -33 242 -61 79 -17 174 -10 178 12 5 24 -32 37 -133 49 -130 14 -165 21 -171 30 -3 5 -15 9 -27 9 -25 0 -163 48 -227 79 -48 23 -53 24 -63 14z"
       id="path42"
       style="fill:#ffffff;fill-opacity:1" />
    <path
       d="M2645 621 c-6 -5 -35 -18 -65 -29 -30 -11 -80 -30 -110 -41 -30 -12 -65 -21 -77 -21 -12 0 -24 -4 -27 -9 -6 -9 -26 -13 -163 -30 -112 -13 -125 -18 -121 -44 3 -19 11 -23 53 -25 28 -2 75 2 105 8 130 28 226 52 242 61 10 5 24 9 31 9 7 0 32 9 55 20 22 11 46 20 52 20 12 0 47 19 72 39 14 11 15 17 5 32 -13 20 -37 25 -52 10z"
       id="path44"
       style="fill:#ffffff;fill-opacity:1" />
  </g>
</svg>
