<?xml version="1.0" encoding="UTF-8" standalone="no"?>
<svg
   xmlns:dc="http://purl.org/dc/elements/1.1/"
   xmlns:cc="http://creativecommons.org/ns#"
   xmlns:rdf="http://www.w3.org/1999/02/22-rdf-syntax-ns#"
   xmlns:svg="http://www.w3.org/2000/svg"
   xmlns="http://www.w3.org/2000/svg"
   xmlns:sodipodi="http://sodipodi.sourceforge.net/DTD/sodipodi-0.dtd"
   xmlns:inkscape="http://www.inkscape.org/namespaces/inkscape"
   width="48"
   height="48"
   viewBox="0 0 47.999999 48"
   version="1.1"
   id="svg128"
   sodipodi:docname="EYE_NOMAI.svg"
   inkscape:version="0.92.5 (2060ec1f9f, 2020-04-08)">
  <metadata
     id="metadata134">
    <rdf:RDF>
      <cc:Work
         rdf:about="">
        <dc:format>image/svg+xml</dc:format>
        <dc:type
           rdf:resource="http://purl.org/dc/dcmitype/StillImage" />
        <dc:title></dc:title>
      </cc:Work>
    </rdf:RDF>
  </metadata>
  <defs
     id="defs132" />
  <sodipodi:namedview
     pagecolor="#ffffff"
     bordercolor="#666666"
     borderopacity="1"
     objecttolerance="10"
     gridtolerance="10"
     guidetolerance="10"
     inkscape:pageopacity="0"
     inkscape:pageshadow="2"
     inkscape:window-width="1866"
     inkscape:window-height="1016"
     id="namedview130"
     showgrid="false"
     inkscape:zoom="12.494781"
     inkscape:cx="20.728817"
     inkscape:cy="24.2829"
     inkscape:window-x="54"
     inkscape:window-y="1107"
     inkscape:window-maximized="1"
     inkscape:current-layer="svg128" />
  <desc
     id="desc2">Outline to SVG export</desc>
  <path
     d="m 26.201742,20.002597 v 0 0 l 0.04284,0.8 v 0 0 0 0 0 L 41.193143,5.6025967 v 0 0 z"
     id="path4"
     inkscape:connector-curvature="0"
     style="opacity:1;fill:#000000;fill-rule:evenodd;stroke:#555555;stroke-width:0" />
  <path
     d="m 29.453771,21.902597 v 0 0 l 0.01609,1.1 v 0 0 0 0 0 0 l 0.251962,0.4 v 0 0 0 0 0 h 0.531574 v 0 h 1e-6 v 0 l 5.540691,-0.2 v 0 0 0 l 0.0354,-0.3 v 0 0 0 0 0 l -5.927564,0.1 h -10e-7 -1e-6 -1e-6 v 0 h -10e-7 -1e-6 -1e-6 -1e-6 v 0 h -10e-7 -1e-6 v 0 0 h -1e-6 v 0 0 l 0.01872,-1 v 0 h 10e-7 v 0 0 h 1e-6 v 0 h 1e-6 v 0 h 1e-6 10e-7 1e-6 l 1.351872,-0.7 v 0 0 0 0 l -1.818745,0.6 v 0 0 z"
     id="path6"
     inkscape:connector-curvature="0"
     style="opacity:1;fill:#000000;fill-rule:evenodd;stroke:#555555;stroke-width:0" />
  <path
     d="m 28.700433,21.102597 v 0 0 0 0 0 l 0.02785,1.4 v 0 0 0 0 0 l 0.471496,0.3 v 0 0 0 l 0.01188,-1.2 v 0 0 0 h 10e-7 v 0 0 h 1e-6 1e-6 v 0 l 2.040187,-1.8 v 0 h -1e-6 z"
     id="path8"
     inkscape:connector-curvature="0"
     style="opacity:1;fill:#000000;fill-rule:evenodd;stroke:#555555;stroke-width:0" />
  <path
     d="m 26.818992,22.602597 v 0 0 l 0.0037,0.3 v 0 0 0 0 h 1.258384 v 0 0 0 h 1e-6 l 0.380515,-0.4 v 0 h 1e-6 v 0 0 l -0.0086,-1.8 v 0 0 0 0 0 l -0.805305,-0.8 v 0 0 0 0 l -0.2705,0.3 v 0 0 h -1e-6 v 0 l 0.673154,0.7 h 1e-6 1e-6 v 0 0 h 10e-7 v 0 0 0 l -0.0176,0.8 -0.0193,0.9 v 0 0 h -1e-6 v 0 0 h -10e-7 v 0 h -1e-6 -1e-6 -10e-7 v 0 h -1e-6 -1e-6 -1e-6 -10e-7 -1e-6 -1.194458 v 0 z"
     id="path10"
     inkscape:connector-curvature="0"
     style="opacity:1;fill:#000000;fill-rule:evenodd;stroke:#555555;stroke-width:0" />
  <path
     d="m 30.262239,22.402597 v 0 0 0 0 0 l 0.01,0.4 v 0 0 0 0 h 0.666931 v 0 0 0 0 l -0.251043,-0.4 v 0 0 0 z"
     id="path12"
     inkscape:connector-curvature="0"
     style="opacity:1;fill:#000000;fill-rule:evenodd;stroke:#555555;stroke-width:0" />
  <path
     d="m 26.52071,21.002597 v 0 h -1e-6 v 0 0 0 0 l 1.258486,1.3 v 0 0 0 0 0 h 2e-6 v 0 0 0 0 0 0 l -0.0063,-0.8 v 0 0 0 l -0.524887,-0.5 h -1e-6 -1e-6 v 0 h -10e-7 v 0 0 h -1e-6 v 0 0 0 h 1e-6 v 0 0 h 10e-7 v 0 h 1e-6 l 0.297225,-0.3 v 0 0 0 0 l -0.347828,-0.3 v 0 0 0 0 z"
     id="path14"
     inkscape:connector-curvature="0"
     style="opacity:1;fill:#000000;fill-rule:evenodd;stroke:#555555;stroke-width:0" />
  <path
     d="m 25.537687,21.202597 v 0 0 0 0 l 0.987014,1.1 v 0 h 1e-6 v 0 0 0 0 h 0.855991 v 0 0 0 0 0 0 h 4e-6 v 0 0 0 l -1.415006,-1.4 v 0 h -1e-6 -10e-7 v 0 0 h -1e-6 v 0 0 l 0.01747,-2.1 v 0 0 0 0 h 1e-6 l 4.133831,-7.200001 h 10e-7 v 0 h -10e-7 -1e-6 v 0 0 0 0 0 0 l -4.570566,6.700001 h -1e-6 v 0 0 l -0.0087,2.9 v 0 z"
     id="path16"
     inkscape:connector-curvature="0"
     style="opacity:1;fill:#000000;fill-rule:evenodd;stroke:#555555;stroke-width:0" />
  <path
     d="m 26.239881,23.602597 v 0 0 0 0 0 l 2.295465,-0.1 v 0 0 0 0 l -0.348245,-0.3 v 0 0 0 0 h -1.577915 -1e-6 -1e-6 -10e-7 -1e-6 -1e-6 v 0 h -1e-6 -10e-7 -1e-6 v 0 h -1e-6 v 0 0 h -10e-7 v 0 0 l 0.0032,-0.6 v 0 0 0 0 h -0.368152 -10e-7 v 0 0 0 z"
     id="path18"
     inkscape:connector-curvature="0"
     style="opacity:1;fill:#000000;fill-rule:evenodd;stroke:#555555;stroke-width:0" />
  <path
     d="m 28.338979,23.002597 v 0 0 0 0 l 1.221583,1 v 0 0 0 0 0 l 18.758664,-0.6 h 10e-7 -10e-7 l -18.697404,0.2 h -1e-6 -1e-6 -1e-6 -10e-7 -1e-6 v 0 h -1e-6 -10e-7 l -1.002053,-0.9 v 0 0 z"
     id="path20"
     inkscape:connector-curvature="0"
     style="opacity:1;fill:#000000;fill-rule:evenodd;stroke:#555555;stroke-width:0" />
  <path
     d="m 26.3262,24.402597 v 0 0 0 l 4.01e-4,0.8 v 0 0 0 0 0 h 1.967222 v 0 0 0 0 0 0 l -0.03094,-1.1 v 0 0 0 h 1e-6 v 0 0 h 1e-6 1e-6 v 0 h 10e-7 1e-6 1e-6 10e-7 1e-6 1e-6 v 0 h 10e-7 l 0.28375,0.1 h 1e-6 1e-6 10e-7 1e-6 1e-6 10e-7 l 0.788831,0.6 v 0 0 0 0 h 1.088208 1e-6 1e-6 1e-6 l 2.621983,1 v 0 0 0 l 0.162037,-0.3 v 0 0 0 0 l -2.785652,-1.2 v 0 h -1e-6 v 0 0 h -1.088208 -1e-6 -1e-6 -1e-6 -10e-7 -1e-6 -1e-6 -10e-7 v 0 l -0.461194,-0.5 v 0 0 0 h -10e-7 -1.04346 v 0 0 0 l 0.0429,1 v 0 0 0 0 h -1e-6 v 0 h -1e-6 v 0 h -1e-6 -10e-7 -1e-6 -1e-6 -10e-7 v 0 h -1e-6 -1e-6 -0.714481 -0.344067 v 0 h -1e-6 -1e-6 -10e-7 -1e-6 -1e-6 -1e-6 -10e-7 v 0 h -1e-6 v 0 h -1e-6 v 0 0 h -10e-7 v 0 l -0.01718,-0.4 v 0 0 0 0 z"
     id="path22"
     inkscape:connector-curvature="0"
     style="opacity:1;fill:#000000;fill-rule:evenodd;stroke:#555555;stroke-width:0" />
  <path
     d="m 25.533361,21.702597 v 0 0 0 0 0 l 2e-6,1.1 v 0 0 0 l 0.282222,0.6 v 0 0 h 1e-6 v 0 l 0.02731,0.7 v 0 0 0 h 0.209381 v 0 h 7e-6 0.955891 10e-7 1e-6 1e-6 10e-7 1e-6 1e-6 1e-6 v 0 h 10e-7 1e-6 v 0 h 1e-6 v 0 0 0 l 0.02731,0.5 v 0 0 0 0 h 0.600855 v 0 0 0 0 l -0.0091,-0.5 v 0 0 l -0.03641,-0.4 v 0 0 0 0 0 0 h -1.565853 -1e-6 -10e-7 -1e-6 -1e-6 -10e-7 -1e-6 v 0 h -1e-6 -1e-6 v 0 h -10e-7 v 0 h -1e-6 v 0 0 0 l -0.0273,-0.7 v 0 l 0.0091,-0.8 v 0 0 0 l -0.473404,-0.5 v 0 0 0 0 0 h -1e-6 z"
     id="path24"
     inkscape:connector-curvature="0"
     style="opacity:1;fill:#000000;fill-rule:evenodd;stroke:#555555;stroke-width:0" />
  <path
     d="m 27.526231,21.002597 v 0 0 0 0 l 0.265614,0.2 v 0 0 0 l -0.02529,-0.3 v 0 0 h -1e-6 z"
     id="path26"
     inkscape:connector-curvature="0"
     style="opacity:1;fill:#000000;fill-rule:evenodd;stroke:#555555;stroke-width:0" />
  <path
     d="m 23.948452,19.202597 v 0 h -1e-6 1e-6 1.381871 1e-6 v 0 0 0 l 0.0075,-0.7 v 0 l 0.0075,-0.7 v 0 0 0 l 0.634166,-3 v 0 0 l -1.163879,2.9 v 0 0 0 0 0 l -0.01492,0.8 v 0 0 h -1e-6 v 0 0 h -1e-6 -10e-7 v 0 h -1e-6 z"
     id="path28"
     inkscape:connector-curvature="0"
     style="opacity:1;fill:#000000;fill-rule:evenodd;stroke:#555555;stroke-width:0" />
  <path
     d="m 26.155769,19.602597 0.415458,-0.4 v 0 h 1e-6 v 0 h -1e-6 l -0.219268,-0.2 v 0 0 0 0 l -0.150028,0.1 v 0 h -10e-7 v 0 0 l -0.04616,0.5 v 0 0 0 z"
     id="path30"
     inkscape:connector-curvature="0"
     style="opacity:1;fill:#000000;fill-rule:evenodd;stroke:#555555;stroke-width:0" />
  <path
     d="m 23.830801,22.102597 v 0 0 0 h 0.286304 v 0 0 0 0 l 0.09543,-2.3 v 0 0 0 h 1e-6 v 0 h 1e-6 v 0 h 10e-7 1e-6 v 0 h 1e-6 1e-6 10e-7 1e-6 1e-6 10e-7 0.645998 10e-7 v 0 h 1e-6 1e-6 1e-6 10e-7 1e-6 v 0 h 1e-6 10e-7 v 0 h 1e-6 v 0 0 0 0 l 0.05873,2.5 v 0 0 0 0 0 0 l 0.359708,0.3 v 0 0 0 0 0 l -0.02202,-3.2 v 0 0 0 h -1.394802 v 0 0 0 l -0.02936,2.7 v 0 z"
     id="path32"
     inkscape:connector-curvature="0"
     style="opacity:1;fill:#000000;fill-rule:evenodd;stroke:#555555;stroke-width:0" />
  <path
     d="m 24.359361,22.102597 v 0 0 0 l 0.278967,0.1 v 0 0 0 l -0.07342,-2.2 v 0 0 0 0 0 h -0.139482 v 0 0 0 0 l -0.06607,2.1 v 0 z"
     id="path34"
     inkscape:connector-curvature="0"
     style="opacity:1;fill:#000000;fill-rule:evenodd;stroke:#555555;stroke-width:0" />
  <path
     d="m 23.196546,19.102597 v 0 0 0 0 l 0.290968,0.2 v 0 0 l 1.029581,-1 v 0 0 0 0 l -0.09699,-3.2 v 0 l -0.283508,3.1 v 0 0 0 h -10e-7 v 0 h -1e-6 v 0 h -1e-6 z"
     id="path36"
     inkscape:connector-curvature="0"
     style="opacity:1;fill:#000000;fill-rule:evenodd;stroke:#555555;stroke-width:0" />
  <path
     d="m 24.074318,26.302597 v 0 0 h -1e-6 v 0 0 0 0 l 0.07971,0.5 h 1e-6 v 0 0 0 0 l 1.072526,-0.7 v 0 h 1e-6 10e-7 1e-6 1e-6 1e-6 10e-7 1e-6 1e-6 10e-7 1e-6 1e-6 v 0 h 10e-7 l 2.828556,2.5 v 0 0 0 0 0 l 0.198543,-0.1 v 0 0 0 0 l -3.073987,-3 v 0 h -10e-7 v 0 z"
     id="path38"
     inkscape:connector-curvature="0"
     style="opacity:1;fill:#000000;fill-rule:evenodd;stroke:#555555;stroke-width:0" />
  <path
     d="m 23.680147,25.702597 v 0 0 0 l 0.270996,0.3 v 0 0 0 0 0 l 0.325052,-0.2 v 0 0 0 0 z"
     id="path40"
     inkscape:connector-curvature="0"
     style="opacity:1;fill:#000000;fill-rule:evenodd;stroke:#555555;stroke-width:0" />
  <path
     d="m 25.311878,25.302597 v 0 0 l 0.34181,0.4 v 0 0 0 l 1.230943,1.1 h 1e-6 v 0 0 0 l -0.0475,-1 v 0 0 l -0.754311,-0.6 h -10e-7 v 0 h -1e-6 -1e-6 v 0 0 h -1e-6 v 0 0 l -0.03855,-0.5 v 0 0 z"
     id="path42"
     inkscape:connector-curvature="0"
     style="opacity:1;fill:#000000;fill-rule:evenodd;stroke:#555555;stroke-width:0" />
  <path
     d="m 25.746139,24.602597 0.330849,-0.2 v 0 0 0 0 h -0.284685 v 0 0 0 0 0 0 l -0.04616,0.2 v 0 0 z"
     id="path44"
     inkscape:connector-curvature="0"
     style="opacity:1;fill:#000000;fill-rule:evenodd;stroke:#555555;stroke-width:0" />
  <path
     d="m 27.025444,26.002597 v 0 0 l 0.03814,0.7 v 0 0 0 l 0.443958,-0.4 v 0 0 0 l -0.482099,-0.3 z"
     id="path46"
     inkscape:connector-curvature="0"
     style="opacity:1;fill:#000000;fill-rule:evenodd;stroke:#555555;stroke-width:0" />
  <path
     d="m 30.826624,24.202597 h -10e-7 10e-7 v 0 l 0.511918,0.3 v 0 0 0 0 0 0 l 0.24568,-0.4 v 0 0 0 z"
     id="path48"
     inkscape:connector-curvature="0"
     style="opacity:1;fill:#000000;fill-rule:evenodd;stroke:#555555;stroke-width:0" />
  <path
     d="m 28.559379,24.602597 0.05715,1.3 v 0 0 0 0 0 0 l 13.342437,6.8 h 1e-6 -1e-6 l -12.925516,-7.2 h -10e-7 -1e-6 -1e-6 v 0 h -10e-7 v 0 h -1e-6 v 0 0 h -1e-6 l -0.0431,-0.6 v 0 0 0 0 l -0.430969,-0.3 v 0 0 0 z"
     id="path50"
     inkscape:connector-curvature="0"
     style="opacity:1;fill:#000000;fill-rule:evenodd;stroke:#555555;stroke-width:0" />
  <path
     d="m 29.288047,25.002597 v 0 0 l 0.01368,0.4 v 0 0 0 0 l 0.849655,0.5 v 0 0 0 0 l 0.581253,-0.7 v 0 0 0 0 l -0.328503,-0.2 v 0 0 0 0 h -1.116089 v 0 z"
     id="path52"
     inkscape:connector-curvature="0"
     style="opacity:1;fill:#000000;fill-rule:evenodd;stroke:#555555;stroke-width:0" />
  <path
     d="m 27.853275,25.402597 v 0 0 0 l 0.441974,0.3 v 0 0 0 l 8.68e-4,-0.3 v 0 0 0 0 0 z"
     id="path54"
     inkscape:connector-curvature="0"
     style="opacity:1;fill:#000000;fill-rule:evenodd;stroke:#555555;stroke-width:0" />
  <path
     d="m 26.779751,25.402597 h -1e-6 v 0 0 l 1.022491,0.9 h 1e-6 v 0 h 1e-6 v 0 h 1e-6 v 0 0 h 10e-7 v 0 h -10e-7 v 0 0 0 h -1e-6 v 0 h -1e-6 -1e-6 l -0.71564,0.7 v 0 0 0 0 0 0 l 0.303562,0.3 v 0 0 0 0 0 0 l 1.211616,-1.1 v 0 0 0 0 0 0 l -1.070325,-0.8 v 0 0 0 0 0 z"
     id="path56"
     inkscape:connector-curvature="0"
     style="opacity:1;fill:#000000;fill-rule:evenodd;stroke:#555555;stroke-width:0" />
  <path
     d="m 27.491581,27.502597 h -1e-6 v 0 h 1e-6 v 0 l 7.218595,5.4 v 0 0 l -6.385652,-5.5 h -1e-6 -10e-7 v 0 h -1e-6 v 0 h -1e-6 v 0 0 0 0 0 h 1e-6 v 0 h 1e-6 v 0 h 10e-7 l 0.492909,-0.5 h 1e-6 v 0 h 10e-7 1e-6 1e-6 1e-6 10e-7 1e-6 1e-6 10e-7 1e-6 1e-6 10e-7 1e-6 l 1.02388,0.6 v 0 0 0 0 0 l 0.187679,-0.1 h 1e-6 v 0 h -1e-6 l -1.226943,-1 v 0 0 0 0 0 0 z"
     id="path58"
     inkscape:connector-curvature="0"
     style="opacity:1;fill:#000000;fill-rule:evenodd;stroke:#555555;stroke-width:0" />
  <path
     d="m 22.640493,18.602597 v 0 l 0.37072,0.3 v 0 0 0 0 0 l 0.875213,-0.9 v 0 0 0 0 0 L 23.456134,6.9025967 v 0 0 0 0 l -0.06956,11.0000003 v 0 0 0 h -1e-6 v 0 h -10e-7 v 0 h -1e-6 l -0.746081,0.7 z"
     id="path60"
     inkscape:connector-curvature="0"
     style="opacity:1;fill:#000000;fill-rule:evenodd;stroke:#555555;stroke-width:0" />
  <path
     d="m 20.199478,12.602597 v 0 0 0 0 0 0 l 1.692224,5.4 v 0 0 0 0 l 0.521849,0.5 v 0 0 0 0 0 0 0 0 0 l 0.652313,-0.7 v 0 0 0 0 0 l -0.252224,-1.7 v 0 0 0 0 l -0.208739,1.5 v 0 h -1e-6 v 0 h -1e-6 v 0 h -1e-6 v 0 h -10e-7 -1e-6 -1e-6 v 0 l -0.34789,0.1 h -1e-6 -10e-7 -1e-6 -1e-6 -10e-7 -1e-6 -1e-6 -1e-6 -10e-7 v 0 h -1e-6 -1e-6 -10e-7 v 0 h -1e-6 v 0 l -2.057512,-5.1 v 0 0 0 0 z"
     id="path62"
     inkscape:connector-curvature="0"
     style="opacity:1;fill:#000000;fill-rule:evenodd;stroke:#555555;stroke-width:0" />
  <path
     d="m 18.099596,15.102597 2.974544,4 v 0 0 0 0 l 0.669699,-0.1 h 10e-7 1e-6 1e-6 10e-7 1e-6 1e-6 1e-6 10e-7 1e-6 v 0 l 1.235033,1.1 h 10e-7 1e-6 v 0 h 1e-6 v 0 0 0 h 10e-7 -10e-7 v 0 0 0 h -1e-6 v 0 h -1e-6 v 0 l -0.356587,0.4 v 0 0 0 0 l 0.913231,0.7 v 0 0 0 0 0 l 0.06958,-0.6 v 0 0 l -0.02609,-0.9 v 0 0 0 0 l -1.7308,-1.3 v 0 0 0 0 l -0.739281,0.1 h -10e-7 -1e-6 -1e-6 -1e-6 -10e-7 -1e-6 -1e-6 -10e-7 -1e-6 v 0 l -3.009327,-3.4 v 0 z"
     id="path64"
     inkscape:connector-curvature="0"
     style="opacity:1;fill:#000000;fill-rule:evenodd;stroke:#555555;stroke-width:0" />
  <path
     d="m 19.204185,18.602597 v 0 0 0 0 0 l 1.965631,1.9 v 0 0 0 0 0 h 10e-7 l 0.948028,-0.9 v 0 0 0 l -0.365303,-0.2 v 0 0 0 0 0 0 0 0 0 l -0.574025,0.5 h -1e-6 -10e-7 -1e-6 -1e-6 -10e-7 -1e-6 -1e-6 -1e-6 -10e-7 -1e-6 -1e-6 -10e-7 -1e-6 v 0 l -1.782977,-1.5 h -1e-6 v 0 0 0 z"
     id="path66"
     inkscape:connector-curvature="0"
     style="opacity:1;fill:#000000;fill-rule:evenodd;stroke:#555555;stroke-width:0" />
  <path
     d="m 20.795122,21.302597 v 0 0 0 l 1.551952,1.7 v 0 0 l 0.0199,-0.6 v 0 0 0 h -10e-7 v 0 l -1.044573,-1.1 h -10e-7 v 0 h -1e-6 v 0 0 h -1e-6 v 0 0 0 0 h 1e-6 v 0 h 1e-6 v 0 h 10e-7 v 0 l 1.27339,-1.2 h 10e-7 v 0 0 0 h -10e-7 l -0.298452,-0.3 v 0 0 0 l -1.502212,1.5 v 0 0 z"
     id="path68"
     inkscape:connector-curvature="0"
     style="opacity:1;fill:#000000;fill-rule:evenodd;stroke:#555555;stroke-width:0" />
  <path
     d="m 22.187421,20.802597 v 0 0 l 1.348105,1.3 v 0 0 0 l 0.0087,-0.6 v 0 0 0 0 0 l -1.078487,-0.9 v 0 0 0 0 0 0 z"
     id="path70"
     inkscape:connector-curvature="0"
     style="opacity:1;fill:#000000;fill-rule:evenodd;stroke:#555555;stroke-width:0" />
  <path
     d="m 21.648176,21.302597 v 0 0 0 0 l 1.226345,1.2 v 0 0 0 0 l 0.391382,-0.3 v 0 0 0 0 0 0 l -1.217644,-1.2 v 0 0 0 0 z"
     id="path72"
     inkscape:connector-curvature="0"
     style="opacity:1;fill:#000000;fill-rule:evenodd;stroke:#555555;stroke-width:0" />
  <path
     d="m 22.576128,22.802597 v 0 0 0 h 1e-6 v 0 0 h 10e-7 v 0 l 0.184657,-0.2 v 0 0 l -0.161575,-0.1 v 0 0 h -2e-6 v 0 0 0 0 0 z"
     id="path74"
     inkscape:connector-curvature="0"
     style="opacity:1;fill:#000000;fill-rule:evenodd;stroke:#555555;stroke-width:0" />
  <path
     d="m 16.818519,18.802597 v 0 l 2.280137,2 v 0 h 1e-6 v 0 h 1e-6 v 0 h 1e-6 v 0 0 0 0 0 0 h -1e-6 v 0 h -1e-6 v 0 l -0.357475,0.4 v 0 0 0 l 0.753603,0.6 h 1e-6 v 0 h 10e-7 1e-6 v 0 0 h 1e-6 v 0 0 l 0.01722,0.4 0.02143,0.3 v 0 0 h -1e-6 v 0 0 h -1e-6 v 0 h -1e-6 -10e-7 v 0 h -1e-6 -1e-6 -10e-7 -1e-6 -1e-6 -10e-7 l -1.516864,0.1 v 0 0 0 0 l 0.0097,1.1 v 0 0 0 h 1e-6 0.531388 v 0 h 1e-6 v 0 0 l 2e-6,-0.8 v 0 0 0 0 h 1e-6 v 0 h 1e-6 10e-7 v 0 h 1e-6 1e-6 1e-6 10e-7 1e-6 1e-6 10e-7 l 1.391265,0.1 v 0 0 0 0 l -0.02899,-1.5 v 0 0 0 0 0 l -0.57003,-0.4 v 0 h -1e-6 -10e-7 v 0 h -1e-6 v 0 h -1e-6 v 0 0 0 0 0 0 h 1e-6 v 0 h 1e-6 l 0.289844,-0.4 v 0 0 0 0 l -2.821201,-1.9 z"
     id="path76"
     inkscape:connector-curvature="0"
     style="opacity:1;fill:#000000;fill-rule:evenodd;stroke:#555555;stroke-width:0" />
  <path
     d="m 12.569596,13.102597 v 0 0 l 7.53228,7.5 v 0 h 1e-6 v 0 h 10e-7 v 0 0 h 1e-6 v 0 l 0.06954,3.1 v 0 0 0 h 1e-6 v 0 l 2.016797,-0.1 v 0 0 0 0 h 10e-7 l 0.06954,-0.4 v 0 0 0 h -1.695146 -1e-6 -1e-6 -1e-6 -10e-7 -1e-6 v 0 h -1e-6 -10e-7 -1e-6 v 0 h -1e-6 v 0 0 h -1e-6 v 0 0 l -0.01739,-2.7 v 0 0 0 0 0 l -7.975625,-7.4 v 0 z"
     id="path78"
     inkscape:connector-curvature="0"
     style="opacity:1;fill:#000000;fill-rule:evenodd;stroke:#555555;stroke-width:0" />
  <path
     d="m 15.263003,21.502597 v 0 0 0 l 4.038561,0.8 v 0 h 1e-6 v 0 l 0.01932,-0.4 v 0 0 0 0 0 0 0 0 z"
     id="path80"
     inkscape:connector-curvature="0"
     style="opacity:1;fill:#000000;fill-rule:evenodd;stroke:#555555;stroke-width:0" />
  <path
     d="m 19.610731,21.002597 v 0 0 0 l 0.289852,0.2 v 0 0 0 0 -0.4 0 0 0 z"
     id="path82"
     inkscape:connector-curvature="0"
     style="opacity:1;fill:#000000;fill-rule:evenodd;stroke:#555555;stroke-width:0" />
  <path
     d="m 20.744228,20.502597 v 0 l 0.0071,0.4 v 0 0 0 l 0.291046,-0.2 v 0 0 0 0 l -0.298145,-0.2 v 0 0 0 0 z"
     id="path84"
     inkscape:connector-curvature="0"
     style="opacity:1;fill:#000000;fill-rule:evenodd;stroke:#555555;stroke-width:0" />
  <path
     d="m 20.758426,23.002597 v 0 0 0 0 0 0 h 2e-6 1.213871 v 0 0 0 0 l -1.199673,-1.4 v 0 0 0 z"
     id="path86"
     inkscape:connector-curvature="0"
     style="opacity:1;fill:#000000;fill-rule:evenodd;stroke:#555555;stroke-width:0" />
  <path
     d="m 13.939366,23.602597 v 0 0 l 3.825997,0.1 v 0 0 0 0 l -0.0097,-0.9 v 0 0 0 0 0 l -1.304321,-0.2 v 0 0 l 1.004806,0.4 h 1e-6 v 0 h 1e-6 10e-7 1e-6 v 0 h 1e-6 v 0 h 1e-6 v 0 0 0 0 0.5 0 0 0 0 h -1e-6 v 0 h -1e-6 v 0 h -1e-6 -10e-7 -1e-6 -1e-6 -10e-7 -1e-6 v 0 h -1e-6 z"
     id="path88"
     inkscape:connector-curvature="0"
     style="opacity:1;fill:#000000;fill-rule:evenodd;stroke:#555555;stroke-width:0" />
  <path
     d="m 18.80661,23.702597 v 0 0 0 0 0 0 h 0.504188 1e-6 1e-6 1e-6 10e-7 v 0 h 1e-6 1e-6 10e-7 v 0 h 1e-6 1e-6 v 0 0 0 h 1e-6 v 0 0.6 0 0 0 h 2.486221 v 0 0 0 0 l -0.04346,-0.4 v 0 0 0 0 0 0 h -1.764688 -10e-7 -1e-6 -1e-6 -1e-6 v 0 h -10e-7 -1e-6 -1e-6 -10e-7 v 0 h -1e-6 v 0 0 h -1e-6 v 0 0 -0.7 0 0 0 0 0 h -1.173563 v 0 0 0 0 0 z"
     id="path90"
     inkscape:connector-curvature="0"
     style="opacity:1;fill:#000000;fill-rule:evenodd;stroke:#555555;stroke-width:0" />
  <path
     d="m 9.9706666,37.002597 v 0 l 10.5945794,-9.3 v 0 0 0 l -0.483302,-0.5 h -1e-6 -10e-7 v 0 0 h -1e-6 v 0 0 l -0.03945,-1.6 v 0 0 0 0 h 1e-6 v 0 h 1e-6 1e-6 v 0 h 10e-7 1e-6 1e-6 10e-7 1e-6 v 0 h 1e-6 0.73974 v 0 0 0 0 0 l -0.04931,-1 v 0 0 0 0 h -1.420332 v 0 0 0 0.3 0 0 0 0 0 0 0 l 0.966604,0.1 h 10e-7 1e-6 1e-6 10e-7 1e-6 1e-6 1e-6 10e-7 v 0 h 1e-6 v 0 h 1e-6 v 0 0 0 0 0 l -0.02958,0.2 v 0 0 h -10e-7 v 0 h -1e-6 v 0 h -1e-6 -10e-7 v 0 h -1e-6 -1e-6 -10e-7 -1e-6 -1e-6 -1e-6 -0.611519 v 0 0 0 l 0.03945,2.1 v 0 0 0 0 0 l 0.374801,0.5 h 10e-7 1e-6 v 0 0 h 1e-6 v 0 0 0 h -1e-6 v 0 0 h -1e-6 v 0 h -10e-7 v 0 l -10.0816774,9.2 z"
     id="path92"
     inkscape:connector-curvature="0"
     style="opacity:1;fill:#000000;fill-rule:evenodd;stroke:#555555;stroke-width:0" />
  <path
     d="m 20.979499,24.602597 v 0 0 0 0 l 0.06905,0.8 v 0 0 0 l 0.769343,-0.8 v 0 0 0 0 0 z"
     id="path94"
     inkscape:connector-curvature="0"
     style="opacity:1;fill:#000000;fill-rule:evenodd;stroke:#555555;stroke-width:0" />
  <path
     d="m 3.1884358,24.102597 v 0 l 15.3681572,0.4 h 1e-6 1e-6 10e-7 1e-6 1e-6 10e-7 l 0.558774,0.4 v 0 0 l -0.033,-0.9 v 0 0 0 h -0.390965 v 0 z"
     id="path96"
     inkscape:connector-curvature="0"
     style="opacity:1;fill:#000000;fill-rule:evenodd;stroke:#555555;stroke-width:0" />
  <path
     d="m 20.608312,26.202597 v 0 0 l 0.778969,0.7 v 0 0 0 l 0.505132,-0.4 v 0 0 h 10e-7 v 0 0 0 0 l 0.0038,-0.6 v 0 0 0 l -0.54037,0.4 h -1e-6 -1e-6 -10e-7 -1e-6 -1e-6 -1e-6 -10e-7 -1e-6 -1e-6 -10e-7 v 0 h -1e-6 -1e-6 -1e-6 -10e-7 v 0 l -0.06679,-0.1 h -0.03461 -1e-6 v 0 h -10e-7 v 0 0 0 0 0 0 h 10e-7 v 0 h 1e-6 v 0 h 1e-6 l 0.599105,-0.6 v 0 0 0 l -0.03524,-0.7 v 0 0 0 l -1.209976,1.3 v 0 z"
     id="path98"
     inkscape:connector-curvature="0"
     style="opacity:1;fill:#000000;fill-rule:evenodd;stroke:#555555;stroke-width:0" />
  <path
     d="m 22.005241,23.902597 v 0 0 0 0 l 0.01487,0.5 v 0 0 0 l 0.07491,0.7 v 0 l 0.120682,2.9 v 0 0 0 0 h 1.542949 v 0 0 l -0.04065,-2 v 0 0 0 0 l -1.01153,-0.8 v 0 0 0 0 l 0.0357,0.5 v 0 0 0 0 0 l 0.583116,0.6 h 1e-6 v 0 h 10e-7 v 0 0 h 1e-6 v 0 0 l -0.0238,1.3 v 0 0 0 h -10e-7 v 0 h -1e-6 v 0 h -1e-6 -10e-7 v 0 h -1e-6 -1e-6 -1e-6 -10e-7 -1e-6 -1e-6 -0.666403 -1e-6 -10e-7 -1e-6 -1e-6 v 0 h -1e-6 -10e-7 -1e-6 v 0 h -1e-6 -10e-7 v 0 0 h -1e-6 v 0 l -0.187131,-2.7 v 0 0 0 0 l -0.205581,-0.5 v 0 0 h -1e-6 v 0 l -0.0238,-0.5 v 0 0 0 h -10e-7 -1e-6 v 0 z"
     id="path100"
     inkscape:connector-curvature="0"
     style="opacity:1;fill:#000000;fill-rule:evenodd;stroke:#555555;stroke-width:0" />
  <path
     d="m 19.973133,32.702597 2.050252,-4.3 v 0 0 0 l -0.102579,-0.6 v 0 0 0 0 0 l -1.538692,-1.4 v 0 0 0 0 0 l -0.0342,0.7 v 0 0 0 0 0 l 1.105581,1.1 h 1e-6 v 0 h 10e-7 v 0 0 h 1e-6 v 0 0 0 0 h -1e-6 z"
     id="path102"
     inkscape:connector-curvature="0"
     style="opacity:1;fill:#000000;fill-rule:evenodd;stroke:#555555;stroke-width:0" />
  <path
     d="m 21.559844,27.102597 h 1e-6 v 0 l 0.399412,0.4 v 0 0 0 0 l -0.03524,-0.7 v 0 0 0 0 0 z"
     id="path104"
     inkscape:connector-curvature="0"
     style="opacity:1;fill:#000000;fill-rule:evenodd;stroke:#555555;stroke-width:0" />
  <path
     d="m 22.81343,26.202597 0.0074,1.2 v 0 0 0 0 0 0 h 0.258112 v 0 0 0 0 l -0.01432,-1 v 0 0 0 0 0 0 l -0.251185,-0.2 v 0 0 z"
     id="path106"
     inkscape:connector-curvature="0"
     style="opacity:1;fill:#000000;fill-rule:evenodd;stroke:#555555;stroke-width:0" />
  <path
     d="m 14.608082,25.402597 v 0 0 0 l 3.812506,-0.2 h 1e-6 1e-6 1e-6 10e-7 1e-6 1e-6 10e-7 v 0 h 1e-6 l 0.909134,0.9 v 0 0 0 0 l 2e-6,-0.7 v 0 0 0 l -0.938463,-0.6 v 0 0 0 0 z"
     id="path108"
     inkscape:connector-curvature="0"
     style="opacity:1;fill:#000000;fill-rule:evenodd;stroke:#555555;stroke-width:0" />
  <path
     d="m 16.045106,28.802597 v 0 h 1e-6 l 0.175964,0.2 v 0 0 0 0 0 0 l 3.050008,-1.9 v 0 0 h 1e-6 v 0 l 0.05865,-0.5 v 0 0 0 0 0 l -0.894474,-1.2 v 0 0 0 0 0 l -0.601203,0.2 v 0 h -1e-6 1e-6 l 1.070427,1.2 v 0 h 1e-6 v 0 h 1e-6 v 0 0 0 0 0 0 h -1e-6 v 0 0 h -1e-6 -1e-6 v 0 h -10e-7 l -2.859373,2 h -1e-6 z"
     id="path110"
     inkscape:connector-curvature="0"
     style="opacity:1;fill:#000000;fill-rule:evenodd;stroke:#555555;stroke-width:0" />
  <path
     d="m 20.274299,25.802597 v 0 0 0 0 0 0 0 0 0 l 0.0105,0.4 v 0 0 l 0.3148,-0.4 v 0 0 0 0 0 z"
     id="path112"
     inkscape:connector-curvature="0"
     style="opacity:1;fill:#000000;fill-rule:evenodd;stroke:#555555;stroke-width:0" />
  <path
     d="m 22.126708,30.602597 h 1e-6 v 0 l 0.633373,-1.8 v 0 0 h 1e-6 v 0 h 10e-7 1e-6 1e-6 v 0 h 10e-7 1e-6 1e-6 1e-6 l 1.74574,-0.2 v 0 0 0 0 0 0 l 0.06002,-1.2 v 0 0 0 h 10e-7 v 0 h 1e-6 v 0 h 1e-6 1e-6 10e-7 v 0 h 1e-6 1e-6 10e-7 1e-6 1e-6 1e-6 10e-7 1e-6 1e-6 10e-7 1e-6 l 0.85465,0.7 v 0 0 0 0 0 h 1e-6 l 0.311876,-0.3 v 0 0 0 0 0 0 l -1.053434,-1 h -10e-7 v 0 0 l -0.646148,0.4 v 0 0 0 0 0 l 0.01083,1 v 0 0 0 0 h -1e-6 v 0 h -10e-7 v 0 h -1e-6 -1e-6 -1e-6 -10e-7 v 0 h -1e-6 -1e-6 -10e-7 l -1.705961,0.1 v 0 0 0 0 0 z"
     id="path114"
     inkscape:connector-curvature="0"
     style="opacity:1;fill:#000000;fill-rule:evenodd;stroke:#555555;stroke-width:0" />
  <path
     d="m 23.432518,29.002597 v 0 0 l 0.451173,10 v 0 0 l 0.15634,-10.1 v 0 0 0 0 0 0 z"
     id="path116"
     inkscape:connector-curvature="0"
     style="opacity:1;fill:#000000;fill-rule:evenodd;stroke:#555555;stroke-width:0" />
  <path
     d="m 22.86638,29.002597 v 0 l 0.404484,0.4 v 0 0 0 0 l 2e-6,-0.4 v 0 0 0 0 0 z"
     id="path118"
     inkscape:connector-curvature="0"
     style="opacity:1;fill:#000000;fill-rule:evenodd;stroke:#555555;stroke-width:0" />
  <path
     d="m 24.705497,27.902597 0.0349,0.7 v 0 0 0 l 0.516565,-0.4 v 0 0 0 0 0 l -0.551462,-0.3 v 0 0 0 z"
     id="path120"
     inkscape:connector-curvature="0"
     style="opacity:1;fill:#000000;fill-rule:evenodd;stroke:#555555;stroke-width:0" />
  <path
     d="m 25.165538,28.602597 v 0 0 l 7.909733,14.8 v 0 0 0 0 l -7.016127,-14.5 v 0 0 h -1e-6 v 0 0 0 h 1e-6 v 0 0 h 1e-6 v 0 h 10e-7 1e-6 v 0 l 0.139746,-0.1 h 10e-7 v 0 h 1e-6 1e-6 10e-7 1e-6 1e-6 10e-7 1e-6 1e-6 1e-6 l 0.703522,0.4 v 0 0 l 0.206711,-0.2 v 0 0 0 l -1.238262,-1 v 0 0 0 0 z"
     id="path122"
     inkscape:connector-curvature="0"
     style="opacity:1;fill:#000000;fill-rule:evenodd;stroke:#555555;stroke-width:0" />
  <path
     d="m 24.276899,28.902597 v 0 0 0 l 0.40793,4.4 v 0 0 0 0 h 2e-6 v 0 0 0 0 h 0.247879 v 0 0 0 0 l -0.223533,-3.5 v 0 0 0 0 h 1e-6 v 0 h 10e-7 1e-6 v 0 h 1e-6 10e-7 l 0.308679,-0.2 h 1e-6 10e-7 1e-6 1e-6 1e-6 10e-7 1e-6 1e-6 10e-7 v 0 h 1e-6 1e-6 1e-6 10e-7 v 0 h 1e-6 l 0.545363,1.1 v 0 0 0 0 h 1e-6 1e-6 v 0 0 l 0.167777,-0.1 h 10e-7 v 0 0 h -10e-7 l -0.716482,-1.7 v 0 0 0 0 0 0 z"
     id="path124"
     inkscape:connector-curvature="0"
     style="opacity:1;fill:#000000;fill-rule:evenodd;stroke:#555555;stroke-width:0" />
  <path
     d="m 24.843603,26.602597 4.975719,4.6 v 0 0 0 0 l 0.168713,-0.2 v 0 0 0 0 0 0 0 l -4.745342,-4.6 v 0 h -10e-7 v 0 0 0 z"
     id="path126"
     inkscape:connector-curvature="0"
     style="opacity:1;fill:#000000;fill-rule:evenodd;stroke:#555555;stroke-width:0" />
  <g
     inkscape:groupmode="layer"
     id="layer1"
     inkscape:label="center"
     style="display:none">
    <rect
       style="opacity:1;fill:#404040;fill-opacity:1;stroke:none;stroke-width:31.94233131;stroke-miterlimit:4;stroke-dasharray:none;stroke-opacity:1"
       id="rect942"
       width="2.2472794"
       height="2.2006743"
       x="22.87636"
       y="22.899662"
       ry="0.80030864" />
  </g>
</svg>
