<?xml version="1.0" encoding="UTF-8" standalone="no"?>
<!-- Created with Inkscape (http://www.inkscape.org/) -->

<svg
   xmlns:dc="http://purl.org/dc/elements/1.1/"
   xmlns:cc="http://creativecommons.org/ns#"
   xmlns:rdf="http://www.w3.org/1999/02/22-rdf-syntax-ns#"
   xmlns:svg="http://www.w3.org/2000/svg"
   xmlns="http://www.w3.org/2000/svg"
   xmlns:sodipodi="http://sodipodi.sourceforge.net/DTD/sodipodi-0.dtd"
   xmlns:inkscape="http://www.inkscape.org/namespaces/inkscape"
   width="220mm"
   height="220mm"
   viewBox="0 0 220 220"
   version="1.1"
   id="svg5"
   xml:space="preserve"
   sodipodi:docname="eye_white.svg"
   inkscape:export-filename="full_eye_white.png"
   inkscape:export-xdpi="479.3652"
   inkscape:export-ydpi="479.3652"
   inkscape:version="0.92.5 (2060ec1f9f, 2020-04-08)"><metadata
     id="metadata7"><rdf:RDF><cc:Work
         rdf:about=""><dc:format>image/svg+xml</dc:format><dc:type
           rdf:resource="http://purl.org/dc/dcmitype/StillImage" /><dc:title></dc:title></cc:Work></rdf:RDF></metadata><sodipodi:namedview
     id="namedview73"
     pagecolor="#505050"
     bordercolor="#ffffff"
     borderopacity="1"
     inkscape:showpageshadow="0"
     inkscape:pageopacity="0"
     inkscape:pagecheckerboard="1"
     inkscape:deskcolor="#505050"
     inkscape:document-units="mm"
     showgrid="false"
     inkscape:zoom="0.75525061"
     inkscape:cx="361.10941"
     inkscape:cy="372.00338"
     inkscape:window-width="1866"
     inkscape:window-height="1016"
     inkscape:window-x="54"
     inkscape:window-y="1107"
     inkscape:window-maximized="1"
     inkscape:current-layer="layer4"
     showguides="false" /><defs
     id="defs2" /><g
     inkscape:groupmode="layer"
     id="layer4"
     inkscape:label="drawing"
     style="display:inline;fill:#ffffff;fill-opacity:1"
     transform="translate(0,54.568253)"><path
       id="path3698"
       style="display:inline;fill:#ffffff;fill-opacity:1;stroke-width:0.2;stroke-linecap:round;stroke-linejoin:round;stroke-miterlimit:2.5999999"
       inkscape:label="all"
       d="m 182.25812,-27.284133 -65.53863,62.77808 0.20412,4.191992 65.8461,-66.663631 z m -77.34462,5.141805 -1.01235,0.07235 0.36174,48.295243 -3.63751,3.272669 1.75752,1.309997 3.90415,-3.570841 z m 28.34038,20.966679 -19.5926,29.858642 0.0641,12.788884 4.80177,4.967655 4.06694,-0.03876 -6.86987,-6.375321 -0.0511,-9.772531 18.36786,-30.64154 z M 90.2379,2.98017 l -0.562239,0.306958 7.668265,23.464717 2.300635,2.198316 3.118159,-3.066997 -1.02216,-7.566463 -0.56224,0.153479 -0.40928,6.543787 -1.686718,0.562239 z m -33.980871,1.917195 -0.578776,0.578259 33.690966,32.82332 0.505913,13.736629 8.972579,0.01809 a 8.2818251,8.2818251 0 0 1 0.52865,-1.969906 l -7.910629,0.144178 -0.07235,-12.868982 z m 58.886331,8.495089 -4.80746,12.362553 v 3.867981 l -0.97616,-0.03617 -2.5306,2.422075 5.92832,-0.108521 -0.14418,-5.313887 3.18069,-13.086023 z m -34.196882,0.216524 -0.614433,0.325562 13.338721,17.893481 3.145027,-0.939477 5.458587,4.988326 -1.59061,1.807641 4.40543,3.688664 -0.077,-6.824906 -7.744755,-6.13451 -3.348633,0.6134 z m 27.943002,0.578259 -0.57826,0.144694 -0.65061,13.194544 -4.48241,4.048848 1.30121,1.156519 4.73563,-4.590934 z m -22.809982,14.279232 -0.57826,0.903821 8.928654,8.711613 4.221965,-3.861263 -1.759066,-1.364775 -2.715596,2.442745 z m -11.097514,1.807125 -0.289388,0.506429 10.338904,8.458915 -1.807642,2.16886 3.614767,2.602425 -0.07183,2.964677 -6.70605,0.05374 0.09043,5.097363 2.277381,-0.01809 v -3.470589 l 6.507096,0.289388 -0.217041,-6.507096 -2.602942,-2.16886 1.30173,-1.590601 z m 41.745256,0.914673 0.11524,2.628263 1.66295,-1.807641 z m -4.09742,1.545125 -6.33966,0.204639 -0.32918,12.096936 a 8.2818251,8.2818251 0 0 1 1.01957,-0.134359 8.2818251,8.2818251 0 0 1 0.49351,0.0217 l 0.24805,-10.144083 h 2.86236 l -0.0377,10.932666 a 8.2818251,8.2818251 0 0 1 2.02314,1.370975 z m -13.292217,1.942517 -6.850228,6.850745 7.054867,7.565946 0.204639,-2.965193 -4.703589,-4.600753 5.419308,-5.521627 z m 39.049807,0.29714 -10.59159,5.422408 0.0362,5.964494 2.20503,1.843815 V 42.60049 l 8.71161,-7.013008 z m -15.11224,0.295589 -1.32034,1.425236 2.96985,2.877344 -0.077,7.630025 -5.46995,0.05116 v 1.737878 l 5.62343,-0.204639 1.73839,-1.942517 -0.20464,-8.383984 z m -14.32626,0.429948 -0.48731,9.336898 a 8.2818251,8.2818251 0 0 1 1.24385,0.330212 l -0.24546,-9.564791 z m 12.16721,1.636076 -3.06751,3.066996 5.64875,5.393469 -0.0765,-3.616833 -2.40295,-1.878955 1.29966,-1.446424 z m -28.78274,0.386023 0.07235,2.16886 1.157035,-1.30173 z m 7.70186,0.732255 -1.004078,0.926558 5.725748,5.827551 v -2.658235 z m -11.524366,0.70435 -1.021126,1.238167 1.084171,0.578259 z m 34.712096,0.249597 -0.86661,0.910538 1.24488,0.999423 0.19224,-1.395264 z m -25.027933,0.766361 -1.690336,1.521354 5.550049,4.918046 a 8.2818251,8.2818251 0 0 1 2.03863,-1.121895 z m 40.083853,1.306897 -7.08536,2.747119 0.1447,5.350061 1.33738,1.156519 26.68003,-0.669727 -0.0258,-0.920357 -26.20202,0.234611 -0.0723,-4.373893 5.65702,-2.80138 z m -70.432388,0.762228 -0.511597,0.204121 18.787484,3.783232 -0.03824,-1.866036 z m 24.646558,0.79375 -0.04806,6.06888 5.341792,-0.03617 z m 21.20749,0.09508 0.54983,6.097819 a 8.2818251,8.2818251 0 0 1 1.01183,3.953247 8.2818251,8.2818251 0 0 1 -0.14573,1.108976 l 5.28392,-0.0863 -0.0129,1.891357 2.63291,-0.03824 -0.0382,-3.578593 -7.01456,0.05788 -0.23099,-7.47913 z m 22.30096,3.012219 -1.40973,0.469739 0.0543,1.337386 3.27112,-0.126607 z m -35.37096,0.590662 -0.14573,1.425753 a 8.2818251,8.2818251 0 0 1 0.67179,-0.857829 z m 17.87487,0.49351 -1.77147,0.03617 0.18087,4.302063 9.941,-0.289388 -1.55442,-1.518253 -6.7598,0.10852 z m -45.240127,0.228927 4.294311,1.738395 0.204639,2.249475 H 61.916115 l 17.177246,1.124479 -0.108004,-4.703072 z m 54.367737,0.240812 -1.37356,1.500683 4.98833,4.138766 84.72557,-2.09703 -0.0253,-0.588078 -83.78973,1.227316 z m -38.793494,2.225187 -5.145422,0.09043 -0.0062,2.014864 2.207101,-0.04237 0.03979,3.235978 11.2019,-0.219108 -0.05943,-2.175061 -8.168494,0.04858 z m 35.052124,2.655135 0.0362,4.663281 -4.62711,-0.03617 -0.0362,-1.735295 -2.02416,0.108521 -0.0724,2.675289 0.68677,0.7953 8.19434,-0.268201 0.0765,-4.294311 h 1.12499 l 2.76056,2.555916 5.72575,0.102319 12.29485,4.447791 0.66456,-1.482597 -13.59865,-5.218286 -3.83181,0.10852 -3.00033,-2.422074 z m -25.860954,0.188619 1.000456,18.922359 6.747908,-0.204638 -0.40877,-8.588624 -2.8577,-2.792077 a 8.2818251,8.2818251 0 0 1 -1.32446,-1.015959 l -0.21446,2.070158 2.76055,2.351794 v 6.236829 h -2.86287 l -0.61443,-11.83855 A 8.2818251,8.2818251 0 0 1 98.70405,53.223098 Z M 84.895591,53.310431 4.026625,53.849416 v 0.460437 l 78.56213,1.6738 2.409155,1.56993 z m 55.519089,1.20096 -2.63292,0.179317 1.55908,0.689881 z m -25.38862,0.466122 a 8.2818251,8.2818251 0 0 1 -0.0935,0.46302 l 0.0486,1.349272 1.54099,-1.635559 z m -22.641004,1.042313 -6.339148,0.127641 -0.07648,1.712557 4.243152,-0.102319 0.02532,1.047998 -2.734717,0.077 -0.128157,9.636622 1.636076,2.044836 -44.987952,40.488999 0.818038,0.6134 46.930469,-41.00008 -2.454114,-3.067513 -0.204122,-6.927225 3.476274,-0.02532 z m 0.920357,0.02532 0.51108,3.578593 3.578593,-3.578593 z m 33.911617,0.111104 0.1447,6.109188 57.86158,29.769759 0.30696,-0.71572 -56.3609,-30.752644 0.0362,-2.856156 z m -12.81317,0.561206 a 8.2818251,8.2818251 0 0 1 -0.93223,1.493451 l 0.99477,-0.76016 z m 1.62523,0.06925 -3.42512,2.555917 6.77375,6.569108 -0.0765,-4.243152 -3.27215,-2.607076 z m -33.970535,0.485242 -17.381885,2.658753 -0.10232,0.511079 17.279566,-1.636075 4.191992,4.089672 v -2.964676 z m 14.927771,0.613916 -5.316989,5.623429 3.373955,3.271635 2.4722,-2.225187 -0.22841,-2.399853 -1.936832,1.864485 -0.715719,-0.920357 2.555916,-2.658236 z m 38.075194,0.36742 -4.69946,0.07235 -0.0362,1.337386 3.75946,2.132686 2.67529,-2.602942 z m -9.07644,1.408699 -1.81488,0.102319 1.84072,1.482597 z m -44.131164,0.371037 -2.658236,0.40876 5.01003,5.930388 -12.985254,8.690419 0.715719,0.6134 14.109733,-8.077021 0.306958,-2.556433 z m 29.957864,0.02532 -4.88239,3.936194 0.0512,2.428276 5.13767,-3.629236 13.34286,12.166703 0.8692,-0.89452 z m 10.77402,0.06408 -3.41271,0.03824 4.72891,3.693314 -3.46336,3.195154 1.15032,1.086755 5.82755,-4.741829 z m -12.25868,0.561206 a 8.2818251,8.2818251 0 0 1 -0.38241,0.15813 l 0.10181,0.09043 z m -6.26732,0.176217 0.74569,0.697632 0.003,-0.387574 a 8.2818251,8.2818251 0 0 1 -0.74879,-0.310058 z m 4.46743,0.400492 a 8.2818251,8.2818251 0 0 1 -1.54668,0.203605 8.2818251,8.2818251 0 0 1 -1.4428,-0.190169 l 0.008,0.484725 1.19787,1.515153 z m -16.755573,0.408244 -1.431437,0.102319 0.102319,1.329118 z m 28.832873,1.060917 c 0,0 -0.10186,2.696476 -0.0124,2.696476 0.0895,0 1.68672,-1.494999 1.68672,-1.494999 z m -19.16163,0.36742 0.2713,5.820316 1.19269,-0.07235 -0.16226,-4.44624 z m -10.928531,0.922941 0.127124,3.314526 5.015198,4.558895 -7.258989,20.346559 0.408761,0.15348 9.227861,-19.27324 -0.07803,-2.095997 z m 21.552681,0.05168 -1.43143,1.175639 22.18727,20.858161 0.97152,-1.27796 z m 16.37937,0.03772 -5.85649,4.915979 32.67552,24.441401 0.81804,-1.07332 -30.00851,-23.567552 2.4536,-2.453597 4.86999,3.19567 0.57877,-0.867647 z m -18.83348,1.879472 -2.78381,2.27738 0.28939,4.085022 -7.518917,0.325562 -1.337903,10.302214 0.614949,0.0723 2.530081,-8.42274 7.91682,-0.43356 -0.25321,-5.133538 0.6506,-0.361218 3.36207,3.108854 c 0,0 1.59051,-1.012422 1.44591,-1.120862 -0.1446,-0.108448 -4.91598,-4.699454 -4.91598,-4.699454 z m -11.98376,0.126607 -1.626774,1.590601 1.934249,1.771468 z m 12.52585,4.717541 c 0,0 -0.10843,3.54286 0.0362,3.43441 0.1446,-0.10844 2.13269,-1.843809 2.13269,-1.843809 z m 5.23534,0.498161 -3.06752,2.811709 33.28066,64.004883 0.92036,-0.45992 -30.72474,-61.858243 1.32911,-1.02216 3.11868,2.096 0.56224,-0.8692 z m -3.96204,3.936189 -3.16983,0.20464 1.58492,19.63084 1.02267,0.10232 -0.76687,-15.87345 0.81752,-0.74155 0.84387,0.12816 2.2748,4.65191 0.51108,-0.2558 z m -6.65954,0.15658 0.97617,42.800493 1.22886,-0.10852 V 75.496157 Z m -1.04851,0.25322 -1.77095,0.18086 1.80712,1.59009 c 0.0361,-0.2169 -0.0362,-1.77095 -0.0362,-1.77095 z"
       inkscape:connector-curvature="0" /></g></svg>