<?xml version="1.0" encoding="UTF-8" standalone="no"?>
<!-- Created with Inkscape (http://www.inkscape.org/) -->

<svg
   xmlns:dc="http://purl.org/dc/elements/1.1/"
   xmlns:cc="http://creativecommons.org/ns#"
   xmlns:rdf="http://www.w3.org/1999/02/22-rdf-syntax-ns#"
   xmlns:svg="http://www.w3.org/2000/svg"
   xmlns="http://www.w3.org/2000/svg"
   xmlns:sodipodi="http://sodipodi.sourceforge.net/DTD/sodipodi-0.dtd"
   xmlns:inkscape="http://www.inkscape.org/namespaces/inkscape"
   width="200mm"
   height="200mm"
   viewBox="0 0 200 200"
   version="1.1"
   id="svg5"
   xml:space="preserve"
   inkscape:version="0.92.5 (2060ec1f9f, 2020-04-08)"
   sodipodi:docname="quantum-moon_white.svg"><metadata
     id="metadata61"><rdf:RDF><cc:Work
         rdf:about=""><dc:format>image/svg+xml</dc:format><dc:type
           rdf:resource="http://purl.org/dc/dcmitype/StillImage" /><dc:title></dc:title></cc:Work></rdf:RDF></metadata><sodipodi:namedview
     id="namedview7"
     pagecolor="#505050"
     bordercolor="#ffffff"
     borderopacity="1"
     inkscape:showpageshadow="0"
     inkscape:pageopacity="0"
     inkscape:pagecheckerboard="1"
     inkscape:deskcolor="#505050"
     inkscape:document-units="mm"
     showgrid="false"
     inkscape:zoom="0.7071068"
     inkscape:cx="174.801"
     inkscape:cy="554.71834"
     inkscape:window-width="1866"
     inkscape:window-height="1016"
     inkscape:window-x="54"
     inkscape:window-y="1107"
     inkscape:window-maximized="1"
     inkscape:current-layer="g44032" /><defs
     id="defs2"><inkscape:path-effect
       effect="fillet_chamfer"
       id="path-effect1841"
       is_visible="true"
       lpeversion="1"
       nodesatellites_param="F,0,0,1,0,0.26458333,0,1 @ F,0,0,1,0,0.26458333,0,1 @ F,0,0,1,0,0.26458333,0,1 @ F,0,0,1,0,0.26458333,0,1 @ F,0,0,1,0,0.26458333,0,1 @ F,0,0,1,0,0.26458333,0,1 @ F,0,0,1,0,0.26458333,0,1 @ F,0,0,1,0,0.26458333,0,1 @ F,0,0,1,0,0.26458333,0,1 @ F,0,0,1,0,0.26458333,0,1 @ F,0,0,1,0,0.26458333,0,1 @ F,0,0,1,0,0.26458333,0,1 @ F,0,0,1,0,0.26458333,0,1 @ F,0,0,1,0,0.26458333,0,1 | F,0,0,1,0,0.26458333,0,1 @ F,0,0,1,0,0.26458333,0,1 @ F,0,0,1,0,0.26458333,0,1 | F,0,0,1,0,0.26458333,0,1 @ F,0,0,1,0,0.26458333,0,1 @ F,0,0,1,0,0.26458333,0,1 @ F,0,0,1,0,0.26458333,0,1 @ F,0,0,1,0,0.26458333,0,1 @ F,0,0,1,0,0.26458333,0,1 | F,0,0,1,0,0.26458333,0,1 @ F,0,0,1,0,0.26458333,0,1 @ F,0,0,1,0,0.26458333,0,1 @ F,0,0,1,0,0.26458333,0,1 | F,0,0,1,0,0.26458333,0,1 @ F,0,0,1,0,0.26458333,0,1 @ F,0,0,1,0,0.26458333,0,1 @ F,0,0,1,0,0.26458333,0,1 | F,0,0,1,0,0.26458333,0,1 @ F,0,0,1,0,0.26458333,0,1 @ F,0,0,1,0,0.26458333,0,1 @ F,0,0,1,0,0.26458333,0,1 @ F,0,0,1,0,0.26458333,0,1 | F,0,0,1,0,0.26458333,0,1 @ F,0,0,1,0,0.26458333,0,1 @ F,0,0,1,0,0.26458333,0,1 @ F,0,0,1,0,0.26458333,0,1 @ F,0,0,1,0,0.26458333,0,1 | F,0,0,1,0,0.26458333,0,1 @ F,0,0,1,0,0.26458333,0,1 @ F,0,0,1,0,0.26458333,0,1 @ F,0,0,1,0,0.26458333,0,1 @ F,0,0,1,0,0.26458333,0,1 | F,0,0,1,0,0.26458333,0,1 @ F,0,0,1,0,0.26458333,0,1 @ F,0,0,1,0,0.26458333,0,1 | F,0,0,1,0,0.26458333,0,1 @ F,0,0,1,0,0.26458333,0,1 @ F,0,0,1,0,0.26458333,0,1 @ F,0,0,1,0,0.26458333,0,1 @ F,0,0,1,0,0.26458333,0,1 @ F,0,0,1,0,0.26458333,0,1 @ F,0,0,1,0,0.26458333,0,1 @ F,0,0,1,0,0.26458333,0,1 @ F,0,0,1,0,0.26458333,0,1 @ F,0,0,1,0,0.26458333,0,1 @ F,0,0,1,0,0.26458333,0,1 | F,0,0,1,0,0.26458333,0,1 @ F,0,0,1,0,0.26458333,0,1 @ F,0,0,1,0,0.26458333,0,1 | F,0,0,1,0,0.26458333,0,1 @ F,0,0,1,0,0.26458333,0,1 @ F,0,0,1,0,0.26458333,0,1 @ F,0,0,1,0,0.26458333,0,1 @ F,0,0,1,0,0.26458333,0,1 @ F,0,0,1,0,0.26458333,0,1 @ F,0,0,1,0,0.26458333,0,1 @ F,0,0,1,0,0.26458333,0,1 @ F,0,0,1,0,0.26458333,0,1 @ F,0,0,1,0,0.26458333,0,1 @ F,0,0,1,0,0.26458333,0,1 | F,0,0,1,0,0.26458333,0,1 @ F,0,0,1,0,0.26458333,0,1 @ F,0,0,1,0,0.26458333,0,1 @ F,0,0,1,0,0.26458333,0,1 @ F,0,0,1,0,0.26458333,0,1 | F,0,0,1,0,0.26458333,0,1 @ F,0,0,1,0,0.26458333,0,1 @ F,0,0,1,0,0.26458333,0,1 | F,0,0,1,0,0.26458333,0,1 @ F,0,0,1,0,0.26458333,0,1 @ F,0,0,1,0,0.26458333,0,1 @ F,0,0,1,0,0.26458333,0,1 | F,0,0,1,0,0.26458333,0,1 @ F,0,0,1,0,0.26458333,0,1 @ F,0,0,1,0,0.26458333,0,1 @ F,0,0,1,0,0.26458333,0,1 @ F,0,0,1,0,0.26458333,0,1 | F,0,0,1,0,0.26458333,0,1 @ F,0,0,1,0,0.26458333,0,1 @ F,0,0,1,0,0.26458333,0,1"
       unit="px"
       method="auto"
       mode="F"
       radius="1"
       chamfer_steps="1"
       flexible="false"
       use_knot_distance="true"
       apply_no_radius="true"
       apply_with_radius="true"
       only_selected="false"
       hide_knots="false" /><inkscape:path-effect
       effect="fillet_chamfer"
       id="path-effect44112"
       is_visible="true"
       lpeversion="1"
       nodesatellites_param="F,0,0,1,0,3.4395833,0,1 @ F,0,0,1,0,3.4395833,0,1 @ F,0,0,1,0,3.4395833,0,1 @ F,0,0,1,0,3.4395833,0,1"
       unit="px"
       method="auto"
       mode="F"
       radius="13"
       chamfer_steps="1"
       flexible="false"
       use_knot_distance="true"
       apply_no_radius="true"
       apply_with_radius="true"
       only_selected="false"
       hide_knots="false" /><inkscape:path-effect
       effect="fillet_chamfer"
       id="path-effect44108"
       is_visible="true"
       lpeversion="1"
       nodesatellites_param="F,0,0,1,0,3.4395833,0,1 @ F,0,0,1,0,3.4395833,0,1 @ F,0,0,1,0,3.4395833,0,1"
       unit="px"
       method="auto"
       mode="F"
       radius="13"
       chamfer_steps="1"
       flexible="false"
       use_knot_distance="true"
       apply_no_radius="true"
       apply_with_radius="true"
       only_selected="false"
       hide_knots="false" /><inkscape:path-effect
       effect="fillet_chamfer"
       id="path-effect44104"
       is_visible="true"
       lpeversion="1"
       nodesatellites_param="F,0,0,1,0,3.4395833,0,1 @ F,0,0,1,0,3.4395833,0,1 @ F,0,0,1,0,3.4395833,0,1"
       unit="px"
       method="auto"
       mode="F"
       radius="13"
       chamfer_steps="1"
       flexible="false"
       use_knot_distance="true"
       apply_no_radius="true"
       apply_with_radius="true"
       only_selected="false"
       hide_knots="false" /><inkscape:path-effect
       effect="fillet_chamfer"
       id="path-effect44100"
       is_visible="true"
       lpeversion="1"
       nodesatellites_param="F,0,0,1,0,3.4395833,0,1 @ F,0,0,1,0,3.4395833,0,1 @ F,0,0,1,0,3.4395833,0,1 @ F,0,0,1,0,3.4395833,0,1"
       unit="px"
       method="auto"
       mode="F"
       radius="13"
       chamfer_steps="1"
       flexible="false"
       use_knot_distance="true"
       apply_no_radius="true"
       apply_with_radius="true"
       only_selected="false"
       hide_knots="false" /><inkscape:path-effect
       effect="fillet_chamfer"
       id="path-effect44096"
       is_visible="true"
       lpeversion="1"
       nodesatellites_param="F,0,0,1,0,3.4395833,0,1 @ F,0,0,1,0,3.4395833,0,1 @ F,0,0,1,0,3.4395833,0,1 @ F,0,0,1,0,3.4395833,0,1 @ F,0,0,1,0,3.4395833,0,1 @ F,0,0,1,0,3.4395833,0,1 @ F,0,0,1,0,3.4395833,0,1 @ F,0,0,1,0,3.4395833,0,1"
       unit="px"
       method="auto"
       mode="F"
       radius="13"
       chamfer_steps="1"
       flexible="false"
       use_knot_distance="true"
       apply_no_radius="true"
       apply_with_radius="true"
       only_selected="false"
       hide_knots="false" /><inkscape:path-effect
       effect="fillet_chamfer"
       id="path-effect44092"
       is_visible="true"
       lpeversion="1"
       nodesatellites_param="F,0,0,1,0,3.4395833,0,1 @ F,0,0,1,0,3.4395833,0,1 @ F,0,0,1,0,3.4395833,0,1 @ F,0,0,1,0,3.4395833,0,1"
       unit="px"
       method="auto"
       mode="F"
       radius="13"
       chamfer_steps="1"
       flexible="false"
       use_knot_distance="true"
       apply_no_radius="true"
       apply_with_radius="true"
       only_selected="false"
       hide_knots="false" /><inkscape:path-effect
       effect="fillet_chamfer"
       id="path-effect44088"
       is_visible="true"
       lpeversion="1"
       nodesatellites_param="F,0,0,1,0,3.4395833,0,1 @ F,0,0,1,0,3.4395833,0,1 @ F,0,0,1,0,3.4395833,0,1 @ F,0,0,1,0,3.4395833,0,1"
       unit="px"
       method="auto"
       mode="F"
       radius="13"
       chamfer_steps="1"
       flexible="false"
       use_knot_distance="true"
       apply_no_radius="true"
       apply_with_radius="true"
       only_selected="false"
       hide_knots="false" /><inkscape:path-effect
       effect="fillet_chamfer"
       id="path-effect44084"
       is_visible="true"
       lpeversion="1"
       nodesatellites_param="F,0,0,1,0,3.4395833,0,1 @ F,0,0,1,0,3.4395833,0,1 @ F,0,0,1,0,3.4395833,0,1 @ F,0,0,1,0,3.4395833,0,1 @ F,0,0,1,0,3.4395833,0,1 @ F,0,0,1,0,3.4395833,0,1 @ F,0,0,1,0,3.4395833,0,1 @ F,0,0,1,0,3.4395833,0,1 @ F,0,0,1,0,3.4395833,0,1 @ F,0,0,1,0,3.4395833,0,1 @ F,0,0,1,0,3.4395833,0,1 @ F,0,0,1,0,3.4395833,0,1 @ F,0,0,1,0,3.4395833,0,1"
       unit="px"
       method="auto"
       mode="F"
       radius="13"
       chamfer_steps="1"
       flexible="false"
       use_knot_distance="true"
       apply_no_radius="true"
       apply_with_radius="true"
       only_selected="false"
       hide_knots="false" /><inkscape:path-effect
       effect="fillet_chamfer"
       id="path-effect44080"
       is_visible="true"
       lpeversion="1"
       nodesatellites_param="F,0,0,1,0,3.4395833,0,1 @ F,0,0,1,0,3.4395833,0,1 @ F,0,0,1,0,3.4395833,0,1"
       unit="px"
       method="auto"
       mode="F"
       radius="13"
       chamfer_steps="1"
       flexible="false"
       use_knot_distance="true"
       apply_no_radius="true"
       apply_with_radius="true"
       only_selected="false"
       hide_knots="false" /><inkscape:path-effect
       effect="fillet_chamfer"
       id="path-effect44076"
       is_visible="true"
       lpeversion="1"
       nodesatellites_param="F,0,0,1,0,3.4395833,0,1 @ F,0,0,1,0,3.4395833,0,1 @ F,0,0,1,0,3.4395833,0,1 @ F,0,0,1,0,3.4395833,0,1 @ F,0,0,1,0,3.4395833,0,1 @ F,0,0,1,0,3.4395833,0,1 @ F,0,0,1,0,3.4395833,0,1 @ F,0,0,1,0,3.4395833,0,1 @ F,0,0,1,0,3.4395833,0,1 @ F,0,0,1,0,3.4395833,0,1"
       unit="px"
       method="auto"
       mode="F"
       radius="13"
       chamfer_steps="1"
       flexible="false"
       use_knot_distance="true"
       apply_no_radius="true"
       apply_with_radius="true"
       only_selected="false"
       hide_knots="false" /><inkscape:path-effect
       effect="fillet_chamfer"
       id="path-effect44072"
       is_visible="true"
       lpeversion="1"
       nodesatellites_param="F,0,0,1,0,3.4395833,0,1 @ F,0,0,1,0,6.1146077,0,1 @ F,0,0,1,0,3.4395833,0,1 @ F,0,0,1,0,3.4395833,0,1"
       unit="px"
       method="auto"
       mode="F"
       radius="13"
       chamfer_steps="1"
       flexible="false"
       use_knot_distance="true"
       apply_no_radius="true"
       apply_with_radius="true"
       only_selected="false"
       hide_knots="false" /><inkscape:path-effect
       effect="fillet_chamfer"
       id="path-effect44068"
       is_visible="true"
       lpeversion="1"
       nodesatellites_param="F,0,0,1,0,3.4395833,0,1 @ F,0,0,1,0,3.4395833,0,1 @ F,0,0,1,0,3.4395833,0,1 @ F,0,0,1,0,3.4395833,0,1"
       unit="px"
       method="auto"
       mode="F"
       radius="13"
       chamfer_steps="1"
       flexible="false"
       use_knot_distance="true"
       apply_no_radius="true"
       apply_with_radius="true"
       only_selected="false"
       hide_knots="false" /><inkscape:path-effect
       effect="fillet_chamfer"
       id="path-effect43868"
       is_visible="true"
       lpeversion="1"
       nodesatellites_param="F,0,0,1,0,3.4395833,0,1 @ F,0,0,1,0,3.4395833,0,1 @ F,0,0,1,0,3.4395833,0,1 @ F,0,0,1,0,3.4395833,0,1"
       unit="px"
       method="auto"
       mode="F"
       radius="13"
       chamfer_steps="1"
       flexible="false"
       use_knot_distance="true"
       apply_no_radius="true"
       apply_with_radius="true"
       only_selected="false"
       hide_knots="false" /><inkscape:path-effect
       effect="fillet_chamfer"
       id="path-effect43864"
       is_visible="true"
       lpeversion="1"
       nodesatellites_param="F,0,0,1,0,3.4395833,0,1 @ F,0,0,1,0,3.4395833,0,1 @ F,0,0,1,0,3.4395833,0,1"
       unit="px"
       method="auto"
       mode="F"
       radius="13"
       chamfer_steps="1"
       flexible="false"
       use_knot_distance="true"
       apply_no_radius="true"
       apply_with_radius="true"
       only_selected="false"
       hide_knots="false" /><inkscape:path-effect
       effect="fillet_chamfer"
       id="path-effect43860"
       is_visible="true"
       lpeversion="1"
       nodesatellites_param="F,0,0,1,0,3.4395833,0,1 @ F,0,0,1,0,3.4395833,0,1 @ F,0,0,1,0,3.4395833,0,1"
       unit="px"
       method="auto"
       mode="F"
       radius="13"
       chamfer_steps="1"
       flexible="false"
       use_knot_distance="true"
       apply_no_radius="true"
       apply_with_radius="true"
       only_selected="false"
       hide_knots="false" /><inkscape:path-effect
       effect="fillet_chamfer"
       id="path-effect43856"
       is_visible="true"
       lpeversion="1"
       nodesatellites_param="F,0,0,1,0,3.4395833,0,1 @ F,0,0,1,0,3.4395833,0,1 @ F,0,0,1,0,3.4395833,0,1 @ F,0,0,1,0,3.4395833,0,1"
       unit="px"
       method="auto"
       mode="F"
       radius="13"
       chamfer_steps="1"
       flexible="false"
       use_knot_distance="true"
       apply_no_radius="true"
       apply_with_radius="true"
       only_selected="false"
       hide_knots="false" /><inkscape:path-effect
       effect="fillet_chamfer"
       id="path-effect43852"
       is_visible="true"
       lpeversion="1"
       nodesatellites_param="F,0,0,1,0,3.4395833,0,1 @ F,0,0,1,0,3.4395833,0,1 @ F,0,0,1,0,3.4395833,0,1 @ F,0,0,1,0,3.4395833,0,1 @ F,0,0,1,0,3.4395833,0,1 @ F,0,0,1,0,3.4395833,0,1 @ F,0,0,1,0,3.4395833,0,1 @ F,0,0,1,0,3.4395833,0,1"
       unit="px"
       method="auto"
       mode="F"
       radius="13"
       chamfer_steps="1"
       flexible="false"
       use_knot_distance="true"
       apply_no_radius="true"
       apply_with_radius="true"
       only_selected="false"
       hide_knots="false" /><inkscape:path-effect
       effect="fillet_chamfer"
       id="path-effect43848"
       is_visible="true"
       lpeversion="1"
       nodesatellites_param="F,0,0,1,0,3.4395833,0,1 @ F,0,0,1,0,3.4395833,0,1 @ F,0,0,1,0,3.4395833,0,1 @ F,0,0,1,0,3.4395833,0,1"
       unit="px"
       method="auto"
       mode="F"
       radius="13"
       chamfer_steps="1"
       flexible="false"
       use_knot_distance="true"
       apply_no_radius="true"
       apply_with_radius="true"
       only_selected="false"
       hide_knots="false" /><inkscape:path-effect
       effect="fillet_chamfer"
       id="path-effect43844"
       is_visible="true"
       lpeversion="1"
       nodesatellites_param="F,0,0,1,0,3.4395833,0,1 @ F,0,0,1,0,3.4395833,0,1 @ F,0,0,1,0,3.4395833,0,1 @ F,0,0,1,0,3.4395833,0,1"
       unit="px"
       method="auto"
       mode="F"
       radius="13"
       chamfer_steps="1"
       flexible="false"
       use_knot_distance="true"
       apply_no_radius="true"
       apply_with_radius="true"
       only_selected="false"
       hide_knots="false" /><inkscape:path-effect
       effect="fillet_chamfer"
       id="path-effect43840"
       is_visible="true"
       lpeversion="1"
       nodesatellites_param="F,0,0,1,0,3.4395833,0,1 @ F,0,0,1,0,3.4395833,0,1 @ F,0,0,1,0,3.4395833,0,1 @ F,0,0,1,0,3.4395833,0,1 @ F,0,0,1,0,3.4395833,0,1 @ F,0,0,1,0,3.4395833,0,1 @ F,0,0,1,0,3.4395833,0,1 @ F,0,0,1,0,3.4395833,0,1 @ F,0,0,1,0,3.4395833,0,1 @ F,0,0,1,0,3.4395833,0,1 @ F,0,0,1,0,3.4395833,0,1 @ F,0,0,1,0,3.4395833,0,1 @ F,0,0,1,0,3.4395833,0,1"
       unit="px"
       method="auto"
       mode="F"
       radius="13"
       chamfer_steps="1"
       flexible="false"
       use_knot_distance="true"
       apply_no_radius="true"
       apply_with_radius="true"
       only_selected="false"
       hide_knots="false" /><inkscape:path-effect
       effect="fillet_chamfer"
       id="path-effect43836"
       is_visible="true"
       lpeversion="1"
       nodesatellites_param="F,0,0,1,0,3.4395833,0,1 @ F,0,0,1,0,3.4395833,0,1 @ F,0,0,1,0,3.4395833,0,1"
       unit="px"
       method="auto"
       mode="F"
       radius="13"
       chamfer_steps="1"
       flexible="false"
       use_knot_distance="true"
       apply_no_radius="true"
       apply_with_radius="true"
       only_selected="false"
       hide_knots="false" /><inkscape:path-effect
       effect="fillet_chamfer"
       id="path-effect43832"
       is_visible="true"
       lpeversion="1"
       nodesatellites_param="F,0,0,1,0,3.4395833,0,1 @ F,0,0,1,0,3.4395833,0,1 @ F,0,0,1,0,3.4395833,0,1 @ F,0,0,1,0,3.4395833,0,1 @ F,0,0,1,0,3.4395833,0,1 @ F,0,0,1,0,3.4395833,0,1 @ F,0,0,1,0,3.4395833,0,1 @ F,0,0,1,0,3.4395833,0,1 @ F,0,0,1,0,3.4395833,0,1 @ F,0,0,1,0,3.4395833,0,1"
       unit="px"
       method="auto"
       mode="F"
       radius="13"
       chamfer_steps="1"
       flexible="false"
       use_knot_distance="true"
       apply_no_radius="true"
       apply_with_radius="true"
       only_selected="false"
       hide_knots="false" /><inkscape:path-effect
       effect="fillet_chamfer"
       id="path-effect43828"
       is_visible="true"
       lpeversion="1"
       nodesatellites_param="F,0,0,1,0,3.4395833,0,1 @ F,0,0,1,0,6.1146077,0,1 @ F,0,0,1,0,3.4395833,0,1 @ F,0,0,1,0,3.4395833,0,1"
       unit="px"
       method="auto"
       mode="F"
       radius="13"
       chamfer_steps="1"
       flexible="false"
       use_knot_distance="true"
       apply_no_radius="true"
       apply_with_radius="true"
       only_selected="false"
       hide_knots="false" /><inkscape:path-effect
       effect="fillet_chamfer"
       id="path-effect43824"
       is_visible="true"
       lpeversion="1"
       nodesatellites_param="F,0,0,1,0,3.4395833,0,1 @ F,0,0,1,0,3.4395833,0,1 @ F,0,0,1,0,3.4395833,0,1 @ F,0,0,1,0,3.4395833,0,1"
       unit="px"
       method="auto"
       mode="F"
       radius="13"
       chamfer_steps="1"
       flexible="false"
       use_knot_distance="true"
       apply_no_radius="true"
       apply_with_radius="true"
       only_selected="false"
       hide_knots="false" /><inkscape:path-effect
       effect="fillet_chamfer"
       id="path-effect43755"
       is_visible="true"
       lpeversion="1"
       nodesatellites_param="F,0,0,1,0,3.4395833,0,1 @ F,0,0,1,0,3.4395833,0,1 @ F,0,0,1,0,3.4395833,0,1 @ F,0,0,1,0,3.4395833,0,1"
       unit="px"
       method="auto"
       mode="F"
       radius="13"
       chamfer_steps="1"
       flexible="false"
       use_knot_distance="true"
       apply_no_radius="true"
       apply_with_radius="true"
       only_selected="false"
       hide_knots="false" /><inkscape:path-effect
       effect="fillet_chamfer"
       id="path-effect43522"
       is_visible="true"
       lpeversion="1"
       nodesatellites_param="F,0,0,1,0,3.4395833,0,1 @ F,0,0,1,0,3.4395833,0,1 @ F,0,0,1,0,3.4395833,0,1 @ F,0,0,1,0,3.4395833,0,1 @ F,0,0,1,0,3.4395833,0,1 @ F,0,0,1,0,3.4395833,0,1 @ F,0,0,1,0,3.4395833,0,1 @ F,0,0,1,0,3.4395833,0,1 @ F,0,0,1,0,3.4395833,0,1 @ F,0,0,1,0,3.4395833,0,1 @ F,0,0,1,0,3.4395833,0,1 @ F,0,0,1,0,3.4395833,0,1 @ F,0,0,1,0,3.4395833,0,1"
       unit="px"
       method="auto"
       mode="F"
       radius="13"
       chamfer_steps="1"
       flexible="false"
       use_knot_distance="true"
       apply_no_radius="true"
       apply_with_radius="true"
       only_selected="false"
       hide_knots="false" /><inkscape:path-effect
       effect="fillet_chamfer"
       id="path-effect43520"
       is_visible="true"
       lpeversion="1"
       nodesatellites_param="F,0,0,1,0,3.4395833,0,1 @ F,0,0,1,0,3.4395833,0,1 @ F,0,0,1,0,3.4395833,0,1 @ F,0,0,1,0,3.4395833,0,1 @ F,0,0,1,0,3.4395833,0,1 @ F,0,0,1,0,3.4395833,0,1 @ F,0,0,1,0,3.4395833,0,1 @ F,0,0,1,0,3.4395833,0,1"
       unit="px"
       method="auto"
       mode="F"
       radius="13"
       chamfer_steps="1"
       flexible="false"
       use_knot_distance="true"
       apply_no_radius="true"
       apply_with_radius="true"
       only_selected="false"
       hide_knots="false" /><inkscape:path-effect
       effect="fillet_chamfer"
       id="path-effect43514"
       is_visible="true"
       lpeversion="1"
       nodesatellites_param="F,0,0,1,0,3.4395833,0,1 @ F,0,0,1,0,3.4395833,0,1 @ F,0,0,1,0,3.4395833,0,1 @ F,0,0,1,0,3.4395833,0,1"
       unit="px"
       method="auto"
       mode="F"
       radius="13"
       chamfer_steps="1"
       flexible="false"
       use_knot_distance="true"
       apply_no_radius="true"
       apply_with_radius="true"
       only_selected="false"
       hide_knots="false" /><inkscape:path-effect
       effect="fillet_chamfer"
       id="path-effect43508"
       is_visible="true"
       lpeversion="1"
       nodesatellites_param="F,0,0,1,0,3.4395833,0,1 @ F,0,0,1,0,3.4395833,0,1 @ F,0,0,1,0,3.4395833,0,1 @ F,0,0,1,0,3.4395833,0,1"
       unit="px"
       method="auto"
       mode="F"
       radius="13"
       chamfer_steps="1"
       flexible="false"
       use_knot_distance="true"
       apply_no_radius="true"
       apply_with_radius="true"
       only_selected="false"
       hide_knots="false" /><inkscape:path-effect
       effect="fillet_chamfer"
       id="path-effect43506"
       is_visible="true"
       lpeversion="1"
       nodesatellites_param="F,0,0,1,0,3.4395833,0,1 @ F,0,0,1,0,3.4395833,0,1 @ F,0,0,1,0,3.4395833,0,1"
       unit="px"
       method="auto"
       mode="F"
       radius="13"
       chamfer_steps="1"
       flexible="false"
       use_knot_distance="true"
       apply_no_radius="true"
       apply_with_radius="true"
       only_selected="false"
       hide_knots="false" /><inkscape:path-effect
       effect="fillet_chamfer"
       id="path-effect43504"
       is_visible="true"
       lpeversion="1"
       nodesatellites_param="F,0,0,1,0,3.4395833,0,1 @ F,0,0,1,0,3.4395833,0,1 @ F,0,0,1,0,3.4395833,0,1"
       unit="px"
       method="auto"
       mode="F"
       radius="13"
       chamfer_steps="1"
       flexible="false"
       use_knot_distance="true"
       apply_no_radius="true"
       apply_with_radius="true"
       only_selected="false"
       hide_knots="false" /><inkscape:path-effect
       effect="fillet_chamfer"
       id="path-effect43502"
       is_visible="true"
       lpeversion="1"
       nodesatellites_param="F,0,0,1,0,3.4395833,0,1 @ F,0,0,1,0,3.4395833,0,1 @ F,0,0,1,0,3.4395833,0,1"
       unit="px"
       method="auto"
       mode="F"
       radius="13"
       chamfer_steps="1"
       flexible="false"
       use_knot_distance="true"
       apply_no_radius="true"
       apply_with_radius="true"
       only_selected="false"
       hide_knots="false" /><inkscape:path-effect
       effect="fillet_chamfer"
       id="path-effect43500"
       is_visible="true"
       lpeversion="1"
       nodesatellites_param="F,0,0,1,0,3.4395833,0,1 @ F,0,0,1,0,3.4395833,0,1 @ F,0,0,1,0,3.4395833,0,1"
       unit="px"
       method="auto"
       mode="F"
       radius="13"
       chamfer_steps="1"
       flexible="false"
       use_knot_distance="true"
       apply_no_radius="true"
       apply_with_radius="true"
       only_selected="false"
       hide_knots="false" /><inkscape:path-effect
       effect="fillet_chamfer"
       id="path-effect43498"
       is_visible="true"
       lpeversion="1"
       nodesatellites_param="F,0,0,1,0,0,0,1 @ F,0,0,1,0,0,0,1 @ F,0,0,1,0,0,0,1 @ F,0,0,1,0,0,0,1"
       unit="px"
       method="auto"
       mode="F"
       radius="0"
       chamfer_steps="1"
       flexible="false"
       use_knot_distance="true"
       apply_no_radius="true"
       apply_with_radius="true"
       only_selected="false"
       hide_knots="false" /><inkscape:path-effect
       effect="fillet_chamfer"
       id="path-effect43496"
       is_visible="true"
       lpeversion="1"
       nodesatellites_param="F,0,0,1,0,3.4395833,0,1 @ F,0,0,1,0,3.4395833,0,1 @ F,0,0,1,0,3.4395833,0,1 @ F,0,0,1,0,3.4395833,0,1 @ F,0,0,1,0,3.4395833,0,1 @ F,0,0,1,0,3.4395833,0,1 @ F,0,0,1,0,3.4395833,0,1 @ F,0,0,1,0,3.4395833,0,1 @ F,0,0,1,0,3.4395833,0,1 @ F,0,0,1,0,3.4395833,0,1"
       unit="px"
       method="auto"
       mode="F"
       radius="13"
       chamfer_steps="1"
       flexible="false"
       use_knot_distance="true"
       apply_no_radius="true"
       apply_with_radius="true"
       only_selected="false"
       hide_knots="false" /><inkscape:path-effect
       effect="fillet_chamfer"
       id="path-effect43494"
       is_visible="true"
       lpeversion="1"
       nodesatellites_param="F,0,0,1,0,3.4395833,0,1 @ F,0,0,1,0,3.4395833,0,1 @ F,0,0,1,0,3.4395833,0,1 @ F,0,0,1,0,3.4395833,0,1"
       unit="px"
       method="auto"
       mode="F"
       radius="13"
       chamfer_steps="1"
       flexible="false"
       use_knot_distance="true"
       apply_no_radius="true"
       apply_with_radius="true"
       only_selected="false"
       hide_knots="false" /><inkscape:path-effect
       effect="fillet_chamfer"
       id="path-effect43492"
       is_visible="true"
       lpeversion="1"
       nodesatellites_param="F,0,0,1,0,3.4395833,0,1 @ F,0,0,1,0,3.4395833,0,1 @ F,0,0,1,0,3.4395833,0,1 @ F,0,0,1,0,3.4395833,0,1"
       unit="px"
       method="auto"
       mode="F"
       radius="13"
       chamfer_steps="1"
       flexible="false"
       use_knot_distance="true"
       apply_no_radius="true"
       apply_with_radius="true"
       only_selected="false"
       hide_knots="false" /><inkscape:path-effect
       effect="fillet_chamfer"
       id="path-effect43456"
       is_visible="true"
       lpeversion="1"
       nodesatellites_param="F,0,0,1,0,3.4395833,0,1 @ F,0,0,1,0,6.1146077,0,1 @ F,0,0,1,0,3.4395833,0,1 @ F,0,0,1,0,3.4395833,0,1"
       unit="px"
       method="auto"
       mode="F"
       radius="13"
       chamfer_steps="1"
       flexible="false"
       use_knot_distance="true"
       apply_no_radius="true"
       apply_with_radius="true"
       only_selected="false"
       hide_knots="false" /><inkscape:path-effect
       effect="fillet_chamfer"
       id="path-effect43452"
       is_visible="true"
       lpeversion="1"
       nodesatellites_param="F,0,0,1,0,0,0,1 @ F,0,0,1,0,0,0,1 @ F,0,0,1,0,0,0,1 @ F,0,0,1,0,0,0,1"
       unit="px"
       method="auto"
       mode="F"
       radius="13"
       chamfer_steps="1"
       flexible="false"
       use_knot_distance="true"
       apply_no_radius="true"
       apply_with_radius="true"
       only_selected="false"
       hide_knots="false" /><inkscape:path-effect
       effect="fillet_chamfer"
       id="path-effect43448"
       is_visible="true"
       lpeversion="1"
       nodesatellites_param="F,0,0,1,0,3.4395833,0,1 @ F,0,0,1,0,3.4395833,0,1 @ F,0,0,1,0,3.4395833,0,1 @ F,0,0,1,0,3.4395833,0,1"
       unit="px"
       method="auto"
       mode="F"
       radius="13"
       chamfer_steps="1"
       flexible="false"
       use_knot_distance="true"
       apply_no_radius="true"
       apply_with_radius="true"
       only_selected="false"
       hide_knots="false" /></defs><g
     inkscape:groupmode="layer"
     id="g44064"
     inkscape:label="final"
     style="display:inline;fill:#ffffff;fill-opacity:1"
     transform="translate(0,-97)"><g
       inkscape:groupmode="layer"
       id="g44032"
       inkscape:label="outer"
       style="display:inline;fill:#ffffff;fill-opacity:1"><path
         id="path44000"
         style="color:#000000;fill:#ffffff;fill-opacity:1"
         d="m 104.95396,98.773435 v 4.004925 c 13.48236,0.6965 26.21205,4.22189 37.61166,9.9906 l 1.99522,-3.45663 c -11.99363,-6.11052 -25.40462,-9.833346 -39.60688,-10.538895 z m -10.837582,0.05633 C 79.975913,99.665428 66.637467,103.48993 54.723434,109.68388 l 1.99316,3.45147 c 11.320384,-5.85107 23.979561,-9.47323 37.399784,-10.29808 z m 59.812882,15.931845 -1.99264,3.45147 c 10.91913,7.2098 20.25022,16.62561 27.35595,27.61898 l 3.45199,-1.99265 c -7.46442,-11.59023 -17.29976,-21.50811 -28.8153,-29.0778 z m -108.532389,0.4439 c -11.354845,7.59793 -21.041816,17.49463 -28.391548,29.02613 l 3.448368,1.99109 c 6.99163,-10.93487 16.176489,-20.32932 26.935824,-27.56627 z m 142.700339,38.05813 -3.45716,1.99575 c 5.61831,11.37806 9.01072,24.05251 9.60872,37.45921 h 4.00234 c -0.60597,-14.12672 -4.19503,-27.48195 -10.1539,-39.45496 z M 11.695569,153.68067 C 5.8603401,165.54635 2.3478241,178.75591 1.7488898,192.7186 h 4.0023393 c 0.590678,-13.24268 3.905816,-25.77203 9.4014939,-37.04218 z M 1.87343,203.5567 c 0.9107773,13.8136 4.6729181,26.8507 10.709424,38.52581 l 3.451469,-1.99316 C 10.339591,229.00813 6.7788291,216.65039 5.8809371,203.5567 Z m 192.24563,0 c -0.90908,13.2569 -4.55106,25.75745 -10.37043,36.94451 l 3.45147,1.99265 c 6.16194,-11.78033 10.00494,-24.96048 10.92647,-38.93716 z m -172.582231,45.87058 -3.450952,1.99213 c 7.419167,11.14156 17.049168,20.6837 28.263391,28.00139 l 1.992643,-3.45147 C 37.72364,269.01166 28.594746,259.97337 21.536829,249.42728 Z m 156.668471,0.38809 c -7.1721,10.60322 -16.44436,19.66678 -27.22108,26.59735 l 1.99265,3.45147 c 11.37311,-7.28925 21.14771,-16.85669 28.68145,-28.05514 z m -120.472231,31.56397 -1.995227,3.45612 c 11.654863,5.8883 24.638108,9.52271 38.378536,10.33477 v -4.00751 c -13.020425,-0.80032 -25.323289,-4.2355 -36.383309,-9.78338 z m 83.811421,0.35863 c -11.13703,5.46736 -23.509,8.80784 -36.59053,9.48366 v 4.00493 c 13.80143,-0.68567 26.85331,-4.22519 38.58576,-10.03195 z"
         inkscape:connector-curvature="0" /><g
         inkscape:groupmode="layer"
         id="g44030"
         inkscape:label="ballies"
         style="display:inline;fill:#ffffff;fill-opacity:1"><circle
           style="fill:#ffffff;fill-opacity:1;stroke:none;stroke-width:7.19999981;stroke-linecap:round;stroke-linejoin:round;stroke-miterlimit:2.5999999;stroke-dasharray:none;stroke-opacity:0.71280302"
           id="circle44018"
           cx="31.637045"
           cy="159.11092"
           r="7.265944" /><circle
           style="fill:#ffffff;fill-opacity:1;stroke:none;stroke-width:7.19999981;stroke-linecap:round;stroke-linejoin:round;stroke-miterlimit:2.5999999;stroke-dasharray:none;stroke-opacity:0.71280302"
           id="circle44020"
           cx="99.779289"
           cy="274.95557"
           r="7.265944" /><circle
           style="fill:#ffffff;fill-opacity:1;stroke:none;stroke-width:7.19999981;stroke-linecap:round;stroke-linejoin:round;stroke-miterlimit:2.5999999;stroke-dasharray:none;stroke-opacity:0.71280302"
           id="circle44022"
           cx="32.667824"
           cy="236.35504"
           r="7.265944" /><circle
           style="fill:#ffffff;fill-opacity:1;stroke:none;stroke-width:7.19999981;stroke-linecap:round;stroke-linejoin:round;stroke-miterlimit:2.5999999;stroke-dasharray:none;stroke-opacity:0.71280302"
           id="circle44024"
           cx="168.00276"
           cy="158.99141"
           r="7.265944" /><circle
           style="fill:#ffffff;fill-opacity:1;stroke:none;stroke-width:7.19999981;stroke-linecap:round;stroke-linejoin:round;stroke-miterlimit:2.5999999;stroke-dasharray:none;stroke-opacity:0.71280302"
           id="circle44026"
           cx="99.601379"
           cy="118.89272"
           r="7.265944" /><circle
           style="fill:#ffffff;fill-opacity:1;stroke:none;stroke-width:7.19999981;stroke-linecap:round;stroke-linejoin:round;stroke-miterlimit:2.5999999;stroke-dasharray:none;stroke-opacity:0.71280302"
           id="circle44028"
           cx="166.85902"
           cy="237.23375"
           r="7.265944" /></g><g
         id="layer4-0"
         inkscape:label="drawing"
         style="display:inline;fill:#ffffff;fill-opacity:1"
         transform="translate(77.044749,85.783448)" /></g><g
       inkscape:groupmode="layer"
       id="g44062"
       inkscape:label="inner"
       style="display:inline;fill:#ffffff;fill-opacity:1"><path
         id="path44116"
         style="display:none;fill:#ffffff;fill-opacity:1;stroke:none;stroke-width:7.19999981;stroke-linecap:round;stroke-linejoin:round;stroke-miterlimit:2.5999999;stroke-dasharray:none;stroke-opacity:0.71280302"
         d="m 106.02764,98.56401 a 55.109917,55.109917 0 0 0 -30.877705,9.47126 v 6.13554 2.73162 a 3.4395833,3.4395833 0 0 0 3.439583,3.43958 h 9.275403 a 3.4395833,3.4395833 0 0 0 3.439583,-3.43958 v -8.04861 a 3.4395833,3.4395833 0 0 1 3.439584,-3.43958 2.6736604,2.6736604 0 0 1 1.570447,3.43958 v 8.86664 a 3.4395833,3.4395833 0 0 0 3.439583,3.43959 h 42.709542 a 3.4395833,3.4395833 0 0 0 3.43958,-3.43959 v -2.08049 a 55.109917,55.109917 0 0 0 -18.09709,-12.58683 v 4.34082 a 3.4395833,3.4395833 0 0 1 -3.43958,3.43958 H 110.4899 a 3.4395833,3.4395833 0 0 1 -3.43959,-3.43958 v -7.639842 a 3.4395833,3.4395833 0 0 0 -0.22789,-1.179773 55.109917,55.109917 0 0 0 -0.79478,-0.01033 z m -41.167516,27.03091 -2.221053,0.0253 a 5.3699818,5.3699818 0 0 0 -4.842599,3.17913 l -3.63492,8.13542 a 4.9975676,4.9975676 0 0 0 1.028878,5.57279 l 8.78551,8.78499 a 2.5327537,2.5327537 0 0 0 4.323767,-1.79058 v -20.50573 a 3.4011552,3.4011552 0 0 0 -3.439583,-3.40134 z m 12.195638,0.57516 a 3.4395833,3.4395833 0 0 0 -3.439584,3.43958 v 3.95893 a 3.4395833,3.4395833 0 0 0 3.439584,3.43958 h 56.614628 a 3.4395833,3.4395833 0 0 0 3.43959,-3.43958 v -3.95893 a 3.4395833,3.4395833 0 0 0 -3.43959,-3.43958 z m 68.503828,0.71572 a 3.4395833,3.4395833 0 0 0 -3.43958,3.43958 v 64.94487 a 55.109917,55.109917 0 0 0 8.4863,-9.25731 v -55.68756 a 3.4395833,3.4395833 0 0 0 -3.43958,-3.43958 z m 9.23871,1.13223 v 51.23511 a 55.109917,55.109917 0 0 0 6.33967,-25.57932 55.109917,55.109917 0 0 0 -6.33967,-25.65579 z m -36.12906,15.73805 a 3.4395833,3.4395833 0 0 0 -3.43958,3.43959 v 16.22795 a 1.3793552,1.3793552 0 0 0 2.3766,0.95343 l 17.33176,-18.1343 a 1.470516,1.470516 0 0 0 -1.06299,-2.48667 z m -42.431516,0.10232 a 3.4395833,3.4395833 0 0 0 -3.439584,3.43959 v 3.54965 a 3.4395833,3.4395833 0 0 0 3.439584,3.43958 h 18.068664 a 3.3747158,3.3747158 0 0 1 3.439584,3.30885 3.4395833,3.4395833 0 0 1 -3.439584,3.43958 H 84.008309 a 3.4395833,3.4395833 0 0 0 -3.439583,3.43958 v 37.90363 a 3.4395833,3.4395833 0 0 0 0.02222,0.14108 55.109917,55.109917 0 0 0 7.51427,3.22771 3.4395833,3.4395833 0 0 0 2.99465,-3.36879 v -27.98589 a 3.4395833,3.4395833 0 0 1 3.439583,-3.43958 h 11.729521 a 3.4395833,3.4395833 0 0 0 3.43958,-3.43958 v -20.21582 a 3.4395833,3.4395833 0 0 0 -3.43958,-3.43959 z m -24.853264,2.92024 a 55.109917,55.109917 0 0 0 -0.466638,6.89518 55.109917,55.109917 0 0 0 1.087272,10.70684 l 20.148641,18.46089 a 1.5135551,1.5135551 0 0 0 2.53628,-1.11569 v -8.20208 a 8.3038897,8.3038897 0 0 0 -2.43241,-5.872 z m 85.76169,8.38036 a 1.488632,1.488632 0 0 0 -1.03715,0.43564 l -26.21803,26.21803 a 3.4395339,3.4395339 0 0 0 5.1e-4,4.86431 l 13.23279,13.2333 a 3.4396327,3.4396327 0 0 0 4.86482,0 l 8.52919,-8.52971 a 8.3038887,8.3038887 0 0 0 2.43241,-5.872 v -5.74848 a 1.4246791,1.4246791 0 0 0 -2.43189,-1.00718 l -7.32875,7.32824 a 3.4396824,3.4396824 0 0 1 -4.86431,5.2e-4 l -0.2222,-0.22273 a 3.4394119,3.4394119 0 0 1 0,-4.86379 l 12.41474,-12.41578 a 7.9473894,7.9473894 0 0 0 2.32389,-5.86992 l -0.19224,-6.10867 a 1.488632,1.488632 0 0 0 -1.50378,-1.44178 z m -37.903112,19.06602 a 3.4395833,3.4395833 0 0 0 -3.439583,3.43959 v 3.65197 a 1.6288553,1.6288553 0 0 0 2.660819,1.26039 l 7.535976,-6.17223 a 1.2288103,1.2288103 0 0 0 -0.77877,-2.17972 z m -33.72714,8.15196 a 1.4247226,1.4247226 0 0 0 -1.510502,1.42214 v 5.47201 a 55.109917,55.109917 0 0 0 10.735262,9.75755 v -4.49378 a 8.3038854,8.3038854 0 0 0 -2.431893,-5.87148 l -5.871477,-5.87148 a 1.4247226,1.4247226 0 0 0 -0.92139,-0.41496 z m 31.823897,4.09174 a 1.4247221,1.4247221 0 0 0 -1.53634,1.42059 v 19.89852 a 55.109917,55.109917 0 0 0 10.224185,0.99581 55.109917,55.109917 0 0 0 12.63023,-1.48001 L 98.235347,186.88162 a 1.4247221,1.4247221 0 0 0 -0.895552,-0.4129 z"
         inkscape:label="inside"
         inkscape:connector-curvature="0" /><path
         id="circle1832"
         style="display:inline;fill:#ffffff;fill-opacity:1;stroke:none;stroke-width:13.38814926;stroke-dashoffset:2.31761003"
         inkscape:label="inside eye"
         d="m 99.835457,142.10505 c -1.060718,0.0324 -2.120184,0.0998 -3.177011,0.19644 -0.943382,0.0862 -1.726313,0.95163 -1.752078,1.89872 l -0.530923,19.51169 a 1.6918386,1.6918386 0 0 0 1.668585,1.73774 l 39.98865,0.53487 a 1.699287,1.699287 0 0 0 1.72198,-1.69241 l 0.0259,-6.42606 c 0.004,-0.94735 -0.55822,-2.23598 -1.27736,-2.85268 -3.15208,-2.70324 -6.60713,-5.03167 -10.29586,-6.93862 -0.84151,-0.43504 -1.53873,0.005 -1.54202,0.95208 l -0.01,2.74408 a 1.667536,1.667536 0 0 1 -1.72047,1.66091 l -1.79595,-0.0583 a 1.816827,1.816827 0 0 1 -1.75855,-1.76931 l -0.12383,-4.82408 c -0.024,-0.94709 -0.76855,-1.97029 -1.67266,-2.25323 -1.5637,-0.48949 -3.14898,-0.90689 -4.75086,-1.25129 -0.92618,-0.19904 -1.72254,0.43309 -1.77187,1.37934 l -0.3479,6.67203 a 1.7507714,1.7507714 0 0 1 -1.80386,1.65871 l -2.70751,-0.0856 a 1.7278572,1.7278572 0 0 1 -1.6726,-1.76918 l 0.17712,-7.24405 c 0.0233,-0.94709 -0.72477,-1.76361 -1.67174,-1.78999 -0.82083,-0.0259 -1.4855,-0.0195 -1.48408,-0.0195 z m -12.715598,1.94779 0.01297,0.013 v -0.0194 z m -6.241477,2.16467 c -3.602158,1.50408 -7.029582,3.39651 -10.221447,5.64371 -0.7746,0.54525 -0.811769,1.51905 -0.102696,2.14735 a 2.7542182,2.7542182 0 0 1 0.501034,2.09173 l 0.267569,6.15848 a 1.7746444,1.7746444 0 0 0 1.789771,1.69754 l 11.634088,-0.11021 a 1.6631507,1.6631507 0 0 0 1.646042,-1.73022 L 85.916864,150.3397 a 4.0759197,4.0759197 0 0 0 -1.343301,-2.86267 l -0.827932,-0.74643 c -0.703627,-0.63407 -1.993065,-0.8781 -2.867262,-0.51283 z m -18.30811,12.63206 c -0.673219,0.71103 -1.326866,1.44028 -1.960206,2.18703 -0.612743,0.72251 -1.16663,2.08972 -1.263037,3.03221 a 0.97693935,0.97693935 0 0 0 1.602772,0.10892 l 5.48776,-1.44709 a 1.0298876,1.0298876 0 0 0 0.49293,-1.69572 l -1.995301,-2.15384 c -0.643863,-0.69495 -1.713547,-0.71972 -2.364898,-0.0324 z m 7.724308,12.653 v 7.00839 a 1.7153904,1.7153904 0 0 0 1.715388,1.71537 h 59.205182 a 1.7153904,1.7153904 0 0 0 1.71537,-1.71537 v -7.00839 a 1.7153904,1.7153904 0 0 0 -1.71537,-1.71537 H 72.009968 a 1.7153904,1.7153904 0 0 0 -1.715388,1.71537 z m -7.394051,-0.78825 -8.828548,4.2243 a 5.7119328,5.7119328 0 0 1 -2.314257,0.75337 c -1.741237,4.67172 -2.583679,7.83897 -3.132697,11.06309 -0.159037,0.93386 0.507129,1.69663 1.454491,1.69825 l 4.14241,0.006 a 2.672931,2.672931 0 0 0 2.432637,-1.55529 l 7.076094,-15.37303 a 0.61949541,0.61949541 0 0 0 -0.83013,-0.81782 z m 85.928891,1.03287 2.66525,29.55007 a 1.8459015,1.8459015 0 0 0 1.86928,1.67978 c 0.76886,-0.013 1.4983,-0.7841 1.59568,-1.72639 0.12967,-1.25135 0.2146,-2.50692 0.2561,-3.76431 0.0324,-0.94683 0.0324,-2.48326 0.001,-3.43015 -0.25025,-7.82912 -2.21089,-15.50912 -5.74374,-22.50026 -0.42725,-0.8455 -0.79791,-1.51782 -0.79778,-1.51717 z m -12.06516,0.31574 5.34988,55.63868 a 0.95329646,0.95329646 0 0 0 1.52748,0.66643 c 0.73489,-0.56146 1.78481,-1.63569 2.31735,-2.41921 1.09025,-1.60411 2.09277,-3.26612 3.00316,-4.9787 0.44476,-0.83648 0.71538,-2.29252 0.63472,-3.23643 l -3.90739,-45.66915 a 1.8684217,1.8684217 0 0 0 -1.86157,-1.70915 h -5.51235 a 1.5583618,1.5583618 0 0 0 -1.55121,1.70753 z m -71.721193,13.47924 -10.377878,9.56141 a 1.2821614,1.2821614 0 0 0 0.210386,2.04316 l 3.564722,2.13323 a 1.469082,1.469082 0 0 0 2.115983,-0.70909 l 5.104334,-12.60113 a 0.38490378,0.38490378 0 0 0 -0.617541,-0.42726 z m 3.419405,2.99441 -3.181368,8.2421 a 1.1852847,1.1852847 0 0 0 1.09764,1.61203 l 25.879656,0.17764 a 1.7271933,1.7271933 0 0 1 1.715349,1.72711 v 2.19008 a 1.7153904,1.7153904 0 0 1 -1.715388,1.71536 H 79.227095 a 1.6877853,1.6877853 0 0 0 -1.687562,1.71518 l 0.546937,33.70954 a 4.0432125,4.0432125 0 0 0 1.280523,2.88705 l 2.80591,2.62492 c 0.691846,0.64704 1.974768,1.43418 2.87615,1.72567 0.25726,0.083 0.515103,0.16468 0.77355,0.24378 0.905681,0.27813 1.654276,-0.2911 1.66238,-1.23845 l 0.250712,-29.31214 a 1.7301266,1.7301266 0 0 1 1.73006,-1.71531 h 14.636855 a 1.7153904,1.7153904 0 0 0 1.71539,-1.71536 v -24.474 a 1.7153873,1.7153873 0 0 0 -1.71539,-1.71536 l -33.307041,6e-5 a 2.500875,2.500875 0 0 0 -2.333097,1.60029 z m 62.163598,-0.5673 -17.57886,0.11865 a 1.5470526,1.5470526 0 0 0 -1.52726,1.71666 l 1.75342,15.89566 a 0.80804367,0.80804367 0 0 0 1.38294,0.47393 l 16.49025,-16.98616 a 0.718645,0.718645 0 0 0 -0.52062,-1.21919 z m 2.52437,9.05791 -26.55601,25.96471 a 4.0762691,4.0762691 0 0 0 -1.22654,2.9146 v 4.14138 a 3.8158929,3.8158929 0 0 0 1.28299,2.85398 l 13.20566,11.71985 c 0.70858,0.62888 1.75747,0.95577 2.3372,0.71654 l 13.81029,-12.23671 a 3.5085526,3.5085526 0 0 0 1.17465,-2.84957 l -0.38381,-6.01176 a 1.8283801,1.8283801 0 0 0 -1.82462,-1.71193 h -0.98605 a 4.1414674,4.1414674 0 0 0 -2.92834,1.2129 l -7.41168,7.41133 a 1.7152575,1.7152575 0 0 1 -2.42583,-1.9e-4 l -2.49186,-2.49234 a 1.7156225,1.7156225 0 0 1 9e-5,-2.42607 l 14.43669,-14.43768 a 4.1418179,4.1418179 0 0 0 1.21298,-2.92834 l 6.5e-4,-11.32456 a 0.7218236,0.7218236 0 0 0 -1.22646,-0.51607 z m -85.254843,0.70377 c 0.366115,10.01083 3.526069,19.72084 9.121816,28.02979 0.529172,0.78579 0.940931,0.64056 0.8918,-0.30601 L 57.5807,219.12911 a 0.79327398,0.79327398 0 0 1 1.27393,-0.67141 l 11.375168,8.69425 a 0.82339167,0.82339167 0 0 0 1.323184,-0.67323 l -0.298819,-12.90611 a 3.328975,3.328975 0 0 0 -1.459308,-2.67789 L 49.279892,196.97876 c -0.784027,-0.53164 -1.418917,-0.1945 -1.384295,0.75201 z m 105.161753,11.31068 c 0.0324,0.92492 0.27684,0.93769 0.51154,0.0195 0.22821,-0.89178 -0.0454,-1.6716 -0.57248,-1.7341 z m -60.648309,10.88162 -0.07657,3.06598 a 3.1049959,3.1049959 0 0 0 1.386053,2.66395 l 6.237782,4.14333 a 0.94949708,0.94949708 0 0 0 1.474504,-0.76569 l 0.22037,-8.28444 a 1.8255771,1.8255771 0 0 0 -1.663022,-1.86695 l -5.827618,-0.51867 a 1.609246,1.609246 0 0 0 -1.751474,1.56268 z m -0.519966,10.32158 0.285851,16.68326 c 0.01621,0.94722 0.785343,1.85197 1.722955,1.98741 1.967967,0.28397 3.950204,0.45902 5.93755,0.52321 0.946839,0.0324 2.483319,0.0324 3.430179,5.8e-4 2.08321,-0.0668 4.16077,-0.2548 6.22212,-0.56276 0.93692,-0.14004 2.20139,-0.85574 2.82954,-1.56489 a 1.5750843,1.5750843 0 0 0 -0.297,-2.24998 L 93.18613,229.61751 a 0.79382474,0.79382474 0 0 0 -1.297062,0.62759 z m -27.898874,3.88341 c -3.63e-4,0.004 0.546158,0.5459 1.24382,1.18678 2.135867,1.96225 4.427218,3.74816 6.85155,5.34028 0.791845,0.51997 0.899288,0.38187 0.221666,-0.28008 l -6.91294,-6.7543 a 0.82910028,0.82910028 0 0 0 -1.404083,0.50764 z"
         inkscape:original-d="m 95.982245,184.96074 a 8.2818251,8.2818251 0 0 0 -1.017608,0.063 l -0.09628,3.53848 6.697003,0.0896 0.006,-1.52032 a 8.2818251,8.2818251 0 0 0 -2.023026,-1.36337 l -0.0033,0.95241 -0.805909,-0.0256 -0.03268,-1.27307 a 8.2818251,8.2818251 0 0 0 -1.243496,-0.32751 l -0.08122,1.55754 -0.946511,-0.03 0.04025,-1.64633 a 8.2818251,8.2818251 0 0 0 -0.493621,-0.0148 z m -2.223802,0.30408 a 8.2818251,8.2818251 0 0 0 -0.002,6.4e-4 l 0.002,0.002 z m -0.71895,0.23649 a 8.2818251,8.2818251 0 0 0 -2.036174,1.12426 l 0.263827,0.23377 0.06424,1.47855 2.323594,-0.022 -0.09477,-2.34511 z m -2.884647,1.85723 a 8.2818251,8.2818251 0 0 0 -0.655184,0.73099 l -0.03555,0.34752 1.358113,-0.35812 z m 1.006451,1.87621 v 1.61014 h 9.661023 v -1.61014 z m -0.901796,0.0288 -1.839061,0.87996 -0.118284,0.002 a 8.2818251,8.2818251 0 0 0 -0.523431,1.96787 l 1.168095,0.002 z m 12.991309,0.01 0.45863,5.08485 0.47927,-0.008 a 8.2818251,8.2818251 0 0 0 0.0753,-1.10784 8.2818251,8.2818251 0 0 0 -1.01323,-3.9692 z m -1.86249,0.0488 0.87581,9.1085 0.41551,-0.31731 a 8.2818251,8.2818251 0 0 0 0.73585,-1.2199 l -0.64778,-7.57129 z m -10.842435,2.16314 -1.989865,1.83332 1.0039,0.60075 z m 0.428102,0.39431 -0.681249,1.76493 4.520855,0.031 v 0.86696 h -2.53912 l 0.09294,5.72849 0.81922,0.76637 a 8.2818251,8.2818251 0 0 0 0.62386,0.19656 l 0.0432,-5.05027 h 2.786767 v -4.30405 z m 9.757473,0.15758 -3.240536,0.0219 0.328469,2.97774 z m 0.31396,1.21392 -4.474385,4.37476 v 1.16793 l 2.432633,2.15892 a 8.2818251,8.2818251 0 0 0 0.162601,-0.0651 l 2.328141,-2.06287 -0.0929,-1.45536 h -0.68125 l -1.517367,1.51729 -0.758484,-0.75864 2.600891,-2.60106 z m -13.344408,0.029 a 8.2818251,8.2818251 0 0 0 1.563676,4.80492 l -0.07811,-1.50413 2.174942,1.66235 -0.05834,-2.51967 z m 16.216228,1.74468 0.0187,0.52272 a 8.2818251,8.2818251 0 0 0 0.12944,-0.50526 z m -9.338381,1.6783 -0.02503,1.0019 1.402909,0.93185 0.04806,-1.80678 z m -0.09134,1.59197 0.05316,3.10232 a 8.2818251,8.2818251 0 0 0 1.441566,0.12706 8.2818251,8.2818251 0 0 0 1.485246,-0.13439 l 0.334208,-0.37733 z m -4.271295,0.60035 -0.02742,0.26414 a 8.2818251,8.2818251 0 0 0 1.472174,1.14745 z"
         inkscape:connector-curvature="0" /><circle
         style="display:inline;fill:none;fill-opacity:1;stroke:#ffffff;stroke-width:4;stroke-dasharray:none;stroke-opacity:1"
         id="circle44060"
         cy="195.98715"
         cx="101.30145"
         r="54.851467"
         inkscape:label="circle" /></g></g></svg>