<?xml version="1.0" encoding="UTF-8" standalone="no"?>
<!-- Created with Inkscape (http://www.inkscape.org/) -->

<svg
   xmlns:dc="http://purl.org/dc/elements/1.1/"
   xmlns:cc="http://creativecommons.org/ns#"
   xmlns:rdf="http://www.w3.org/1999/02/22-rdf-syntax-ns#"
   xmlns:svg="http://www.w3.org/2000/svg"
   xmlns="http://www.w3.org/2000/svg"
   xmlns:sodipodi="http://sodipodi.sourceforge.net/DTD/sodipodi-0.dtd"
   xmlns:inkscape="http://www.inkscape.org/namespaces/inkscape"
   width="240mm"
   height="240mm"
   viewBox="0 0 240.00001 240"
   version="1.1"
   id="svg5"
   xml:space="preserve"
   sodipodi:docname="brittle-hollow_v1_white.svg"
   inkscape:version="0.92.5 (2060ec1f9f, 2020-04-08)"
   inkscape:export-filename="brittlehollow_colours.svg"
   inkscape:export-xdpi="96"
   inkscape:export-ydpi="96"><metadata
     id="metadata12"><rdf:RDF><cc:Work
         rdf:about=""><dc:format>image/svg+xml</dc:format><dc:type
           rdf:resource="http://purl.org/dc/dcmitype/StillImage" /><dc:title></dc:title></cc:Work></rdf:RDF></metadata><sodipodi:namedview
     id="namedview7"
     pagecolor="#505050"
     bordercolor="#ffffff"
     borderopacity="1"
     inkscape:showpageshadow="0"
     inkscape:pageopacity="0"
     inkscape:pagecheckerboard="1"
     inkscape:deskcolor="#505050"
     inkscape:document-units="mm"
     showgrid="false"
     inkscape:zoom="0.457453"
     inkscape:cx="-422.61118"
     inkscape:cy="521.51323"
     inkscape:window-width="1866"
     inkscape:window-height="1016"
     inkscape:window-x="54"
     inkscape:window-y="1107"
     inkscape:window-maximized="1"
     inkscape:current-layer="g3699"
     fit-margin-top="0"
     fit-margin-left="0"
     fit-margin-right="0"
     fit-margin-bottom="0" /><defs
     id="defs2" /><g
     inkscape:groupmode="layer"
     id="g3699"
     inkscape:label="drawing"
     inkscape:highlight-color="#8aed36"
     transform="translate(-8.588623,-30.538894)"><g
       id="g3697"
       inkscape:label="nothern ruins"
       transform="translate(23.072066,-2.8051635)"><path
         style="fill:#ffffff;fill-opacity:1;stroke-width:2.06500006;stroke-dashoffset:2.31761003"
         d="m 128.36828,250.29514 6.49254,17.73947 -4.08979,0.0511 -3.68081,-2.55612 -3.32295,-8.94641 -3.01622,5.31672 -2.14714,-3.98755 1.89152,-6.03243 z"
         id="path3691"
         inkscape:label="right ruin"
         inkscape:connector-curvature="0" /><path
         style="fill:#ffffff;fill-opacity:1;stroke-width:2.06500006;stroke-dashoffset:2.31761003"
         d="m 90.047103,252.17527 2.675024,18.32753 -3.289556,0.0361 -2.638878,-2.71116 -1.518256,-10.7724 -3.940238,5.81998 -8.422711,1.59056 9.940967,-13.91736 z"
         id="path3693"
         inkscape:label="center ruin"
         inkscape:connector-curvature="0" /><path
         style="fill:#ffffff;fill-opacity:1;stroke-width:2.06500006;stroke-dashoffset:2.31761003"
         d="m 110.67994,253.15799 -3.37408,8.99754 -3.52744,2.14714 -1.78929,-0.56234 3.78306,-10.42897 z"
         id="path3695"
         inkscape:label="left ruin"
         inkscape:connector-curvature="0" /></g><path
       id="path3677"
       style="display:inline;fill:#ffffff;fill-opacity:1;stroke-width:2.06500006;stroke-dashoffset:2.31761003"
       inkscape:label="observatory"
       d="M 128.62687,33.344052 A 32.678677,32.678677 0 0 0 96.327543,61.078793 h 64.601227 a 32.678677,32.678677 0 0 0 -32.3019,-27.734741 z"
       inkscape:connector-curvature="0" /><path
       id="path3675"
       style="display:inline;fill:#ffffff;fill-opacity:1;stroke-width:2.06500006;stroke-dashoffset:2.31761003"
       inkscape:label="ball"
       d="m 94.340584,64.593307 a 96.928024,96.928024 0 0 0 -12.15533,5.592424 L 93.707031,82.361732 V 108.895 h 8.603609 V 98.194877 h 25.73797 v 7.374743 l 24.94266,0.43357 22.99085,-25.665624 13.66428,11.567769 5.78673,-6.751009 A 96.928024,96.928024 0 0 0 162.84442,64.593307 Z M 78.168961,72.554578 A 96.928024,96.928024 0 0 0 46.881465,103.13411 l 16.424321,13.82241 8.422742,-8.42274 H 89.658699 V 84.24172 Z m 98.680799,12.988355 -10.48308,11.350728 32.94786,35.097089 19.75332,-11.40499 A 96.928024,96.928024 0 0 0 198.24329,87.918498 l -8.37985,9.481079 z m -12.88448,14.305584 -8.84391,9.968903 -26.89034,0.20464 v 26.58339 h 9.30382 l 21.31808,38.34185 h 31.08234 l 8.07754,-10.02006 -4.19199,-15.64453 3.90726,-14.58102 z m -57.25697,2.351803 v 9.81542 H 74.756767 l -9.202023,9.20202 0.153479,18.14825 h 6.03219 l 12.064897,11.55381 17.99528,-14.31437 h 21.31809 v -34.40513 z m -62.288193,5.09943 a 96.928024,96.928024 0 0 0 -12.759428,47.96554 96.928024,96.928024 0 0 0 16.340605,53.77605 l 6.303491,-6.30349 19.08669,16.62844 h 8.024833 v -13.59193 l 12.36307,-9.3984 V 174.18042 H 81.127437 V 154.37078 L 70.354968,143.59831 h -9.398909 v -22.84615 z m 176.022853,17.20877 -19.08101,11.01638 -3.52433,13.1532 4.60592,17.1881 -10.91716,13.8808 h -5.5671 v 14.89367 h 14.74897 v 13.77125 h 8.90488 a 96.928024,96.928024 0 0 0 15.90342,-53.14663 96.928024,96.928024 0 0 0 -5.07359,-30.75677 z m -115.74643,15.95613 -18.653124,14.70143 v 14.24254 l 13.013676,0.14469 v 29.06386 l 11.350728,14.53141 h 22.19555 v -14.24254 l 22.26789,-22.26789 -20.88503,-36.1735 z m 53.06653,39.4994 -20.53259,22.05085 v 16.26722 l -26.31623,0.0724 v 17.062 h 52.19888 l 12.14603,-12.14602 v -17.3514 l 6.5071,-9.10952 V 179.9641 Z m 28.19622,18.86964 -6.05442,8.17005 v 18.67121 l -12.2716,12.27212 v 5.9924 a 96.928024,96.928024 0 0 0 39.39398,-31.80271 h -9.93376 v -13.30307 z m -90.444617,1.95234 -9.832475,7.73596 v 14.38724 H 69.849056 l -15.008386,-13.92422 -4.060218,4.06022 a 96.928024,96.928024 0 0 0 43.381332,32.8073 l 12.486576,-10.36371 v -19.37556 z m 12.651937,39.69163 -8.948287,7.10293 a 96.928024,96.928024 0 0 0 29.370307,4.61264 96.928024,96.928024 0 0 0 33.29564,-5.91902 v -5.79655 z"
       inkscape:connector-curvature="0" /></g></svg>