<svg xmlns="http://www.w3.org/2000/svg" xmlns:xlink="http://www.w3.org/1999/xlink" viewBox="0 0 803.00001 803.00001" height="803" width="803"><defs><linearGradient id="a"><stop offset="0" stop-color="#222" stop-opacity="0"/><stop offset=".932" stop-opacity="0"/><stop offset="1" stop-opacity=".792"/></linearGradient><radialGradient gradientUnits="userSpaceOnUse" r="314.366" fy="529.505" fx="-445.714" cy="529.505" cx="-445.714" id="b" xlink:href="#a"/></defs><g transform="translate(847.214 -128.005)"><circle style="isolation:auto;mix-blend-mode:normal" cx="-445.714" cy="529.505" r="314.366" color="#000" overflow="visible" solid-color="#000000" fill="#222"/><g fill="none" stroke="#222" stroke-width="2.324"><path d="M-445.714 859.364v51.64M-280.785 243.84l25.82-44.724M-160.048 364.576l44.722-25.82M-160.048 694.434l44.722 25.82M-280.785 815.17l25.82 44.724M-610.644 815.17l-25.82 44.724M-731.38 694.434l-44.723 25.82M-731.38 364.576l-44.723-25.82M-610.644 243.84l-25.82-44.724M-445.714 199.646v-51.64M-115.856 529.505h51.642M-775.573 529.505h-51.64M-411.235 201.453l3.374-32.1M-377.133 206.855l6.71-31.57M-343.782 215.79l9.973-30.695M-311.55 228.164l13.13-29.485M-251.828 262.644l18.97-26.112M-224.996 284.372l21.597-23.985M-200.58 308.786l23.984-21.596M-178.853 335.62l26.112-18.972M-144.373 395.34l29.485-13.128M-132 427.573l30.696-9.974M-123.064 460.924l31.57-6.71M-117.663 495.025l32.1-3.373M-117.663 563.985l32.1 3.373M-123.064 598.087l31.57 6.71M-132 631.437l30.696 9.974M-144.373 663.67l29.485 13.128M-178.853 723.39l26.112 18.972M-200.58 750.224l23.984 21.596M-224.996 774.638l21.597 23.985M-251.828 796.366l18.97 26.112M-311.55 830.846l13.13 29.485M-343.782 843.22l9.973 30.695M-377.133 852.156l6.71 31.57M-411.235 857.557l3.374 32.1M-480.194 857.557l-3.374 32.1M-514.296 852.156l-6.71 31.57M-547.646 843.22l-9.974 30.695M-579.88 830.846l-13.128 29.485M-639.6 796.366l-18.972 26.112M-666.433 774.638l-21.597 23.985M-690.847 750.224l-23.986 21.596M-712.576 723.39l-26.11 18.972M-747.055 663.67L-776.54 676.8M-759.43 631.437l-30.695 9.974M-768.365 598.087l-31.57 6.71M-773.766 563.985l-32.1 3.373M-773.766 495.025l-32.1-3.373M-768.365 460.924l-31.57-6.71M-759.43 427.573l-30.695-9.974M-747.055 395.34l-29.486-13.128M-712.576 335.62l-26.11-18.972M-690.847 308.786l-23.986-21.596M-666.433 284.372l-21.597-23.985M-639.6 262.644l-18.972-26.112M-579.88 228.164l-13.128-29.485M-547.646 215.79l-9.974-30.695M-514.296 206.855l-6.71-31.57M-480.194 201.453l-3.374-32.1" stroke-width="3.0003537199999997"/></g><path d="M-445.714 270.507v-40.5M-418.752 256.907l2.806-26.697M-390.39 261.4l5.582-26.26M-362.65 268.832l8.294-25.53M-335.842 279.123l10.92-24.524M-286.17 307.8l15.778-21.718M-263.854 325.872l17.962-19.95M-243.548 346.178l19.95-17.963M-225.476 368.495l21.717-15.78M-196.8 418.165l24.525-10.918M-186.508 444.975l25.53-8.296M-179.075 472.713l26.257-5.58M-174.583 501.076l26.697-2.806M-174.583 558.43l26.697 2.807M-179.075 586.794l26.257 5.58M-186.508 614.532l25.53 8.295M-196.8 641.34l24.525 10.92M-225.476 691.012l21.717 15.78M-243.548 713.33l19.95 17.96M-263.854 733.635l17.962 19.95M-286.17 751.707l15.778 21.717M-335.842 780.384l10.92 24.524M-362.65 790.675l8.294 25.53M-390.39 798.108l5.582 26.257M-418.752 802.6l2.806 26.697M-476.107 802.6l-2.806 26.697M-504.47 798.108l-5.58 26.257M-532.208 790.675l-8.296 25.53M-559.018 780.384l-10.918 24.524M-608.688 751.707l-15.78 21.717M-631.005 733.635l-17.963 19.95M-651.31 713.33l-19.95 17.96M-669.383 691.012l-21.718 15.78M-698.06 641.34l-24.524 10.92M-708.35 614.532l-25.532 8.295M-715.784 586.794l-26.258 5.58M-720.276 558.43l-26.698 2.807M-720.276 501.076l-26.698-2.806M-715.784 472.713l-26.258-5.58M-708.35 444.975l-25.532-8.296M-698.06 418.165l-24.524-10.918M-669.383 368.495l-21.718-15.78M-651.31 346.178l-19.95-17.963M-631.005 325.872l-17.963-19.95M-608.688 307.8l-15.78-21.718M-559.018 279.123l-10.918-24.524M-532.208 268.832l-8.296-25.53M-504.47 261.4l-5.58-26.26M-476.107 256.907l-2.806-26.697" fill="none" stroke="#eee" stroke-width="3"/><text style="line-height:125%;-inkscape-font-specification:Ubuntu" x="-317.4" y="299.246" font-size="38.92" font-family="Ubuntu" letter-spacing="0" word-spacing="0" fill="#eee"><tspan x="-317.4" y="299.246">5</tspan></text><text style="line-height:125%;-inkscape-font-specification:Ubuntu" x="-228.858" y="400.438" font-size="38.92" font-family="Ubuntu" letter-spacing="0" word-spacing="0" fill="#eee"><tspan x="-228.858" y="400.438">10</tspan></text><text style="line-height:125%;-inkscape-font-specification:Ubuntu" x="-187.019" y="542.495" font-size="38.92" font-family="Ubuntu" letter-spacing="0" word-spacing="0" fill="#eee"><tspan x="-187.019" y="542.495">15</tspan></text><text style="line-height:125%;-inkscape-font-specification:Ubuntu" x="-227.418" y="680.66" font-size="38.92" font-family="Ubuntu" letter-spacing="0" word-spacing="0" fill="#eee"><tspan x="-227.418" y="680.66">20</tspan></text><text style="line-height:125%;-inkscape-font-specification:Ubuntu" x="-328.209" y="780.878" font-size="38.92" font-family="Ubuntu" letter-spacing="0" word-spacing="0" fill="#eee"><tspan x="-328.209" y="780.878">25</tspan></text><text style="line-height:125%;-inkscape-font-specification:Ubuntu" x="-467.771" y="824.663" font-size="38.92" font-family="Ubuntu" letter-spacing="0" word-spacing="0" fill="#eee"><tspan x="-467.771" y="824.663">30</tspan></text><text style="line-height:125%;-inkscape-font-specification:Ubuntu" x="-606.963" y="780.878" font-size="38.92" font-family="Ubuntu" letter-spacing="0" word-spacing="0" fill="#eee"><tspan x="-606.963" y="780.878">35</tspan></text><text style="line-height:125%;-inkscape-font-specification:Ubuntu" x="-708.544" y="680.66" font-size="38.92" font-family="Ubuntu" letter-spacing="0" word-spacing="0" fill="#eee"><tspan x="-708.544" y="680.66">40</tspan></text><text style="line-height:125%;-inkscape-font-specification:Ubuntu" x="-746.491" y="542.495" font-size="38.92" font-family="Ubuntu" letter-spacing="0" word-spacing="0" fill="#eee"><tspan x="-746.491" y="542.495">45</tspan></text><text style="line-height:125%;-inkscape-font-specification:Ubuntu" x="-709.517" y="400.438" font-size="38.92" font-family="Ubuntu" letter-spacing="0" word-spacing="0" fill="#eee"><tspan x="-709.517" y="400.438">50</tspan></text><text y="299.246" x="-607.352" style="line-height:125%;-inkscape-font-specification:Ubuntu" font-size="38.92" font-family="Ubuntu" letter-spacing="0" word-spacing="0" fill="#eee"><tspan y="299.246" x="-607.352">55</tspan></text><path d="M-131.43 527.162a314.366 314.366 0 0 1-314.284 312.71 314.366 314.366 0 0 1-314.283-312.026 314.366 314.366 0 0 0-.084 1.658A314.366 314.366 0 0 0-445.715 843.87a314.366 314.366 0 0 0 314.367-314.366 314.366 314.366 0 0 0-.084-2.342z" style="isolation:auto;mix-blend-mode:normal" color="#000" overflow="visible" opacity=".7" solid-color="#000000" fill="#fff"/><path style="isolation:auto;mix-blend-mode:normal" d="M-131.43 531.848a314.366 314.366 0 0 0-314.284-312.71 314.366 314.366 0 0 0-314.283 312.026 314.366 314.366 0 0 1-.084-1.658A314.366 314.366 0 0 1-445.715 215.14a314.366 314.366 0 0 1 314.367 314.366 314.366 314.366 0 0 1-.084 2.342z" color="#000" overflow="visible" opacity=".3" solid-color="#000000"/><circle r="314.366" cy="529.505" cx="-445.714" style="isolation:auto;mix-blend-mode:normal" color="#000" overflow="visible" opacity=".4" solid-color="#000000" fill="url(#b)"/></g></svg>