<?xml version="1.0" encoding="UTF-8" standalone="no"?>
<!-- Created with Inkscape (http://www.inkscape.org/) -->

<svg
   xmlns:dc="http://purl.org/dc/elements/1.1/"
   xmlns:cc="http://creativecommons.org/ns#"
   xmlns:rdf="http://www.w3.org/1999/02/22-rdf-syntax-ns#"
   xmlns:svg="http://www.w3.org/2000/svg"
   xmlns="http://www.w3.org/2000/svg"
   xmlns:sodipodi="http://sodipodi.sourceforge.net/DTD/sodipodi-0.dtd"
   xmlns:inkscape="http://www.inkscape.org/namespaces/inkscape"
   width="256mm"
   height="256mm"
   viewBox="0 0 907.08661 907.08661"
   id="svg2"
   version="1.1"
   inkscape:version="0.92.5 (2060ec1f9f, 2020-04-08)"
   sodipodi:docname="kugicloud_icon.svg">
  <defs
     id="defs4" />
  <sodipodi:namedview
     id="base"
     pagecolor="#ffffff"
     bordercolor="#666666"
     borderopacity="1.0"
     inkscape:pageopacity="0.0"
     inkscape:pageshadow="2"
     inkscape:zoom="0.7"
     inkscape:cx="501.83216"
     inkscape:cy="555.22774"
     inkscape:document-units="px"
     inkscape:current-layer="layer1"
     showgrid="false"
     inkscape:window-width="1866"
     inkscape:window-height="1016"
     inkscape:window-x="54"
     inkscape:window-y="1107"
     inkscape:window-maximized="1" />
  <metadata
     id="metadata7">
    <rdf:RDF>
      <cc:Work
         rdf:about="">
        <dc:format>image/svg+xml</dc:format>
        <dc:type
           rdf:resource="http://purl.org/dc/dcmitype/StillImage" />
        <dc:title />
      </cc:Work>
    </rdf:RDF>
  </metadata>
  <g
     inkscape:label="Layer 1"
     inkscape:groupmode="layer"
     id="layer1"
     transform="translate(0,-145.27559)">
    <g
       id="g4156"
       transform="matrix(1.2026098,0,0,1.1296951,-95.132563,-63.851702)"
       style="fill:#dbf2ff;fill-opacity:1">
      <g
         transform="translate(0,4)"
         id="g4152"
         style="fill:#dbf2ff;fill-opacity:1">
        <path
           style="fill:#dbf2ff;fill-opacity:1;fill-rule:evenodd;stroke:none;stroke-width:1px;stroke-linecap:butt;stroke-linejoin:miter;stroke-opacity:1"
           d="m 244.12641,565.04529 c 61.16233,-93.9562 129.71966,-135.19585 225.13196,-144.30218 24.18687,-2.30844 66.25813,-0.58526 96.69332,-1.74573 l -0.16285,73.08419 c -29.4168,1.40112 -72.28857,-1.93139 -95.6288,2.39486 -61.5718,11.41271 -81.81155,27.91541 -108.34547,61.52761 -26.02892,34.41618 -38.74127,70.343 -11.20094,121.44967 23.09896,42.86482 65.80507,78.31065 124.37631,78.35015 109.16339,3.56268 129.28035,0.0649 197.52299,-0.25989 l -0.73071,-99.69608 -106.61256,0.44042 0.54118,-68.69151 111.54417,-0.14155 77.98186,1.6923 -1.16736,252.2937 -213.07934,-1.54924 C 475.22116,837.6654 408.44251,843.08506 338.0396,795.06758 300.37046,769.37579 242.49595,708.43586 240.98832,638.08133 l 1.84305,202.30317 -100.35651,0.36595 1.97893,-516.24367 100.65562,-0.76316 z"
           id="path4144"
           inkscape:connector-curvature="0"
           sodipodi:nodetypes="csccscscccccccccscccccc" />
        <ellipse
           style="fill:#dbf2ff;fill-opacity:1;stroke:none;stroke-width:1.34221137;stroke-opacity:1"
           id="path4146"
           cx="712.98688"
           cy="456.64249"
           rx="57.013565"
           ry="57.038139" />
      </g>
    </g>
  </g>
</svg>
